<?xml version="1.0" encoding="UTF-8"?>
<svg width="39px" height="39px" viewBox="0 0 39 39" version="1.1" xmlns="http://www.w3.org/2000/svg" xmlns:xlink="http://www.w3.org/1999/xlink">
    <!-- Generator: Sketch 62 (91390) - https://sketch.com -->
    <title>Group 4</title>
    <desc>Created with Sketch.</desc>
    <g id="Page-1" stroke="none" stroke-width="1" fill="none" fill-rule="evenodd">
        <g id="Kurl-Vendor-Install-Page" transform="translate(-498.000000, -330.000000)" fill-rule="nonzero">
            <g id="Group-13" transform="translate(498.000000, 330.000000)">
                <g id="Group-4">
                    <path d="M25.1493556,29.9680994 C23.6042392,30.468533 21.9752654,30.7813956 20.2876023,30.872983 C18.2817279,19.8102121 12.7534015,12.0689137 7.95967935,7.22023917 C6.16126881,5.40123978 4.27885428,3.79845995 2.38728101,2.40101912 C2.84580426,1.57131038 3.36426232,0.77918912 3.93598762,0.0300406732 C6.95119197,1.93835612 9.71530026,4.10656003 11.875591,6.16441942 C17.0408283,11.0846421 22.9987364,18.9036431 25.1493556,29.9680994" id="path14" fill="#239DE0" transform="translate(13.768318, 15.451512) scale(-1, 1) rotate(-180.000000) translate(-13.768318, -15.451512) "></path>
                    <path d="M31.6178818,25.811093 C32.6528197,27.7553473 33.5104442,29.7494619 34.2105385,31.7823362 C33.2180972,33.0132711 32.0791161,34.1211125 30.8174078,35.0758198 C28.176393,24.6442326 22.0179085,17.1200331 16.641727,12.2687575 C13.6206244,9.54274956 10.2364693,7.12341296 6.71434691,5.15168238 C7.23496643,4.70433279 7.77822636,4.28262768 8.34460296,3.89209893 C12.2050126,5.80627597 16.2768061,8.40233967 20.1410624,11.7228232 C25.0052336,15.90247 28.8665958,20.6425585 31.6178818,25.811093" id="path16" fill="#239DE0" transform="translate(20.462443, 19.483959) scale(-1, 1) rotate(-180.000000) translate(-20.462443, -19.483959) "></path>
                    <path d="M29.9850613,30.9840603 C28.6768267,31.8691611 27.2532651,32.5959988 25.7432084,33.1407608 C23.5501293,21.9651175 17.5272674,14.0645669 12.3039271,9.08920867 C9.72456891,6.63235785 7.01775771,4.56621896 4.34882707,2.878849 C4.85200835,2.26407762 5.39479202,1.68407281 5.96878869,1.13641669 C9.29755173,2.96886112 12.7469537,5.34255056 16.0056341,8.28323939 C21.3360218,13.0933007 27.4506543,20.5829901 29.9850613,30.9840603" id="path18" fill="#239DE0" transform="translate(17.166944, 17.138589) scale(-1, 1) rotate(-180.000000) translate(-17.166944, -17.138589) "></path>
                    <path d="M36.5181751,30.9543859 C36.7973335,31.4512294 37.0603726,31.9518096 37.3160847,32.4541116 C36.7654611,33.9698834 36.0290983,35.3970718 35.1348387,36.70897 C34.4684486,34.8979204 33.6727372,33.1199888 32.7462388,31.3786921 C29.9202174,26.0691863 25.9593181,21.2050518 20.9742515,16.9214716 C17.5090965,13.9435983 13.6252038,11.3311954 9.60653104,9.26274851 C10.1278466,8.96021695 10.6646588,8.68102186 11.215319,8.42714154 C15.4523728,10.3812507 19.9667899,13.098393 24.2813999,16.6439984 C29.461914,20.9009449 33.5789516,25.7157322 36.5181751,30.9543859" id="path20" fill="#239DE0" transform="translate(23.461308, 22.568056) scale(-1, 1) rotate(-180.000000) translate(-23.461308, -22.568056) "></path>
                    <path d="M19.9925443,28.2226996 C19.7403858,28.2329574 19.4880808,28.2421161 19.2333579,28.2421161 C8.62826751,28.2421161 1.77635684e-14,19.6138486 1.77635684e-14,9.00875828 C1.77635684e-14,5.75524346 0.815128023,2.68922641 2.24733544,1.08357767e-13 C4.11513261,1.38223732 5.97450374,2.9668462 7.75203236,4.76452404 C12.5082769,9.57586757 17.992788,17.2530547 19.9925443,28.2226996" id="path22" fill="#239DE0" transform="translate(9.996272, 14.121058) scale(-1, 1) rotate(-180.000000) translate(-9.996272, -14.121058) "></path>
                    <path d="M25.301757,23.617098 C21.6099048,20.5836861 17.496201,17.934978 13.2559966,15.8401905 C15.1388507,15.2228181 17.1468866,14.8843842 19.2333579,14.8843842 C29.8385215,14.8843842 38.466789,23.5126518 38.466789,34.1177421 C38.466789,35.6139142 38.2894757,37.0681392 37.9648899,38.4667157 C37.9491369,38.4392395 37.935582,38.4109207 37.9201953,38.3830048 C34.8824238,32.9693091 30.6371638,28.0014244 25.301757,23.617098" id="path24" fill="#239DE0" transform="translate(25.861393, 26.675550) scale(-1, 1) rotate(-180.000000) translate(-25.861393, -26.675550) "></path>
                    <path d="M20.2876023,28.4913805 C20.1897503,28.4965093 20.0908359,28.4987074 19.9925443,28.5020046 C17.992788,17.5323597 12.5082769,9.85517257 7.75203236,5.04382903 C5.97450374,3.24615119 4.11513261,1.66154231 2.24733544,0.279304991 C2.29371531,0.192296944 2.33976546,0.105581976 2.38728101,0.0194165327 C4.27885428,1.41685736 6.16126881,3.01963718 7.95967935,4.83863658 C12.7534015,9.68731114 18.2817279,17.4286095 20.2876023,28.4913805" id="path26" fill="#FFFFFF" transform="translate(11.267469, 14.260711) scale(-1, 1) rotate(-180.000000) translate(-11.267469, -14.260711) "></path>
                    <path d="M25.7432084,31.1968362 C25.5471747,31.267908 25.3486864,31.3334846 25.1493556,31.3983285 C22.9987364,20.3338723 17.0408283,12.5148712 11.875591,7.59464854 C9.71530026,5.53678915 6.95119197,3.36858525 3.93598762,1.4602698 C4.07091421,1.28295656 4.20789235,1.10710871 4.34882707,0.934924367 C7.01775771,2.62229433 9.72456891,4.68843322 12.3039271,7.14528403 C17.5272674,12.1206423 23.5501293,20.0211928 25.7432084,31.1968362" id="path28" fill="#FFFFFF" transform="translate(14.839598, 16.166626) scale(-1, 1) rotate(-180.000000) translate(-14.839598, -16.166626) "></path>
                    <path d="M30.8174078,33.2172546 C30.54521,33.4235095 30.268616,33.6246354 29.9850613,33.8162363 C27.4506543,23.4151661 21.3360218,15.9254767 16.0056341,11.1154154 C12.7469537,8.17472661 9.29755173,5.80103717 5.96878869,3.96859274 C6.21149535,3.73705975 6.45991706,3.51179133 6.71434691,3.29311721 C10.2364693,5.26484779 13.6206244,7.6841844 16.641727,10.4101923 C22.0179085,15.261468 28.176393,22.7856675 30.8174078,33.2172546" id="path30" fill="#FFFFFF" transform="translate(18.393098, 18.554677) scale(-1, 1) rotate(-180.000000) translate(-18.393098, -18.554677) "></path>
                    <path d="M32.7462388,29.3015261 C33.6727372,31.0428228 34.4684486,32.8207544 35.1348387,34.631804 C34.8435907,35.0586013 34.5336589,35.4718438 34.2105385,35.873363 C33.5104442,33.8404887 32.6528197,31.8463741 31.6178818,29.9021198 C28.8665958,24.7335853 25.0052336,19.9934968 20.1410624,15.81385 C16.2768061,12.4933665 12.2050126,9.89730278 8.34460296,7.98312573 C8.75388881,7.70078004 9.17533748,7.43616567 9.60653104,7.18558249 C13.6252038,9.25402939 17.5090965,11.8664323 20.9742515,14.8443056 C25.9593181,19.1278858 29.9202174,23.9920203 32.7462388,29.3015261" id="path32" fill="#FFFFFF" transform="translate(21.739721, 21.529473) scale(-1, 1) rotate(-180.000000) translate(-21.739721, -21.529473) "></path>
                    <path d="M36.5181751,36.0111838 C33.5789516,30.77253 29.461914,25.9577427 24.2813999,21.7007962 C19.9667899,18.1551908 15.4523728,15.4380485 11.215319,13.4839394 C11.8764703,13.179576 12.5572212,12.9109685 13.2559966,12.6819999 C17.496201,14.7767873 21.6099048,17.4254955 25.301757,20.4589074 C30.6371638,24.8432338 34.8824238,29.8111185 37.9201953,35.2248142 C37.935582,35.25273 37.9491369,35.2810489 37.9648899,35.3085251 C37.7901411,36.059835 37.5761929,36.7960879 37.3160847,37.5109094 C37.0603726,37.0086074 36.7973335,36.5080272 36.5181751,36.0111838" id="path34" fill="#FFFFFF" transform="translate(24.590104, 25.096455) scale(-1, 1) rotate(-180.000000) translate(-24.590104, -25.096455) "></path>
                </g>
            </g>
        </g>
    </g>
</svg>