<?xml version="1.0" encoding="UTF-8"?>
<svg width="44px" height="38px" viewBox="0 0 44 38" version="1.1" xmlns="http://www.w3.org/2000/svg" xmlns:xlink="http://www.w3.org/1999/xlink">
    <!-- Generator: Sketch 62 (91390) - https://sketch.com -->
    <title>Group 50</title>
    <desc>Created with Sketch.</desc>
    <defs>
        <polygon id="path-1" points="0.0165982143 0.0176509821 0.841257857 0.0176509821 0.841257857 0.106180982 0.0165982143 0.106180982"></polygon>
        <polygon id="path-3" points="0.0102727857 0.0178743036 0.801917071 0.0178743036 0.801917071 0.106114589 0.0102727857 0.106114589"></polygon>
        <polygon id="path-5" points="0.0313012143 0.0177454643 0.8229455 0.0177454643 0.8229455 0.106152893 0.0313012143 0.106152893"></polygon>
    </defs>
    <g id="Page-1" stroke="none" stroke-width="1" fill="none" fill-rule="evenodd">
        <g id="Kurl-Vendor-Install-Page" transform="translate(-495.000000, -570.000000)">
            <g id="Group-17" transform="translate(495.000000, 570.000000)">
                <g id="Group-50">
                    <path d="M33.4395411,32.7762765 C34.1147565,32.7762765 34.7899718,32.7763972 35.4651872,32.7762161 C35.6605632,32.7761558 35.6605632,32.7757936 35.5844529,32.5889279 C35.1932782,31.628344 34.1615332,31.0190386 33.1315386,31.1748204 C32.2607057,31.3065197 31.6272575,31.7760983 31.2827993,32.6025686 C31.2127247,32.7706029 31.2196054,32.7759747 31.3974779,32.7760954 C32.0781254,32.7765179 32.7588936,32.7762765 33.4395411,32.7762765 L33.4395411,32.7762765 Z M32.9630215,37.1343036 C32.8526886,37.0673675 32.7237657,37.0739465 32.6038361,37.0468461 C30.9661657,36.6763136 29.7977722,35.211989 29.7552204,33.5323704 C29.7060293,31.5892325 31.1565925,30.2286618 32.4881918,29.8899375 C34.6031061,29.351914 36.7031122,30.7017411 37.0743086,32.8538958 C37.1058754,33.0373815 37.12018,33.2240661 37.1198246,33.4115958 C37.1187315,33.8562468 36.8511683,34.1361229 36.4054307,34.1370283 C34.9598772,34.139865 33.5143236,34.138175 32.0688304,34.1382354 C31.8324718,34.1382958 31.5960529,34.142219 31.359815,34.1366058 C31.2461022,34.1338897 31.2328236,34.1683536 31.2681929,34.2712022 C31.5366615,35.0504129 32.3785832,35.6900175 33.20952,35.7503143 C33.8905297,35.7997468 34.4887293,35.6232625 34.9964536,35.1524165 C35.293954,34.876524 35.7123497,34.8945708 35.9711007,35.1755936 C36.2282222,35.4548661 36.2130122,35.8945075 35.9205818,36.169555 C35.3640286,36.6929722 34.7051097,37.0074933 33.9443682,37.1029179 C33.9020579,37.1082293 33.8551,37.0970633 33.8206361,37.1343036 L32.9630215,37.1343036 Z" id="Fill-1" fill="#2596EC"></path>
                    <path d="M23.793009,37.1343096 C23.7680212,37.096345 23.7241415,37.1060625 23.6891344,37.0937496 C23.4223558,36.9998943 23.2385683,36.7559307 23.226678,36.4723729 C23.221608,36.3516586 23.2237808,36.2306425 23.2237808,36.1098075 C23.2236601,33.219485 23.2235997,30.3291021 23.2240223,27.4387796 C23.2240826,27.3292314 23.2166587,27.2187779 23.247139,27.1112818 C23.3379162,26.7909061 23.6611287,26.5780264 23.9938776,26.6190693 C24.3238501,26.6598104 24.5850758,26.9290636 24.5886369,27.2632007 C24.5967851,28.0214071 24.5928015,28.7797343 24.5931033,29.5380614 C24.5935258,30.4885657 24.593224,31.43907 24.593224,32.3925318 C24.6734387,32.4081643 24.7165337,32.3479279 24.7675355,32.3148521 C26.0070901,31.5111968 27.2444115,30.7041011 28.484449,29.9012304 C28.9505269,29.599505 29.5147455,29.8499268 29.578724,30.3883125 C29.6110151,30.6597386 29.512633,30.8787143 29.2725926,31.0332286 C28.4228244,31.5799436 27.5778244,32.1339618 26.7270301,32.6791679 C26.6026944,32.7588996 26.5782498,32.8030207 26.6890655,32.92627 C27.5856105,33.9231286 28.4744298,34.9268679 29.364758,35.9291586 C29.7638394,36.3783364 29.606609,36.9314493 29.0297758,37.1141504 C29.0202394,37.1171682 29.0129965,37.1274289 29.004788,37.1343096 L28.7738012,37.1343096 C28.5463755,37.0721418 28.3954222,36.9115918 28.2449519,36.7416864 C27.3281269,35.7064407 26.4062319,34.6756614 25.4889844,33.6407779 C25.4212637,33.5644261 25.372314,33.5506043 25.286124,33.6113839 C25.106984,33.7377114 24.9236794,33.85915 24.7353651,33.9712936 C24.6292573,34.0344875 24.5883955,34.106735 24.5896026,34.2342093 C24.5966644,34.9585554 24.5950347,35.6830221 24.5920169,36.4074286 C24.590508,36.7725893 24.4151101,36.9990493 24.0638919,37.1082354 C24.0492855,37.1128225 24.037214,37.1254975 24.0238751,37.1343096 L23.793009,37.1343096 Z" id="Fill-3" fill="#2596EC"></path>
                    <path d="M43.4195102,30.868363 C43.3790105,30.8795291 43.3841409,30.9197873 43.3711641,30.9473102 C43.1922655,31.328043 42.8552313,31.4614927 42.457538,31.3165752 C41.618453,31.0108663 40.8247566,31.0876405 40.1107316,31.6431073 C39.5352263,32.0908366 39.2435805,32.697788 39.2353116,33.4256952 C39.224568,34.3696205 39.2190755,35.3140288 39.2385105,36.2576523 C39.2476848,36.6992855 39.0949813,36.9947941 38.6695841,37.1342795 L38.4057027,37.1342795 C38.3881388,37.1231738 38.3719027,37.1086277 38.3528902,37.1015055 C38.0217105,36.9776527 37.8550041,36.7555384 37.8545816,36.404803 C37.8521673,34.4328145 37.8518052,32.4608863 37.8548834,30.4888977 C37.8554266,30.113778 38.1070555,29.8176055 38.4362434,29.7790977 C38.8110009,29.7352784 39.1283588,29.9401305 39.2130398,30.2871238 C39.2333802,30.3705373 39.2325955,30.4590813 39.2418905,30.5490134 C39.313957,30.5426155 39.355362,30.486242 39.4070277,30.4499673 C40.4049727,29.750247 41.4983423,29.6202377 42.6581652,29.9138752 C42.9925438,29.9984959 43.2699452,30.174437 43.4195102,30.5055563 L43.4195102,30.868363 Z" id="Fill-5" fill="#2696EC"></path>
                    <g id="Group-9" transform="translate(3.259286, 37.073953)">
                        <mask id="mask-2" fill="white">
                            <use xlink:href="#path-1"></use>
                        </mask>
                        <g id="Clip-8"></g>
                        <path d="M0.0165982143,0.100933393 C0.0212457143,0.0875619643 0.02704,0.0749705357 0.0299975,0.0603733929 C0.0312046429,0.0541333929 0.0266175,0.0437705357 0.0246257143,0.0353019643 C0.294301429,0.0353019643 0.563916786,0.0354133929 0.833532143,0.0354133929 C0.8361275,0.0572533929 0.8386625,0.0790933929 0.841257857,0.100933393 L0.0165982143,0.100933393 Z" id="Fill-7" fill="#339DED" mask="url(#mask-2)"></path>
                    </g>
                    <g id="Group-12" transform="translate(11.347143, 37.073953)">
                        <mask id="mask-4" fill="white">
                            <use xlink:href="#path-3"></use>
                        </mask>
                        <g id="Clip-11"></g>
                        <path d="M0.798174929,0.0374646071 C0.799442429,0.0585246071 0.800649571,0.0796960357 0.801917071,0.100756036 L0.0102727857,0.100756036 C0.0143167143,0.0872731786 0.0195074286,0.0743474643 0.0219820714,0.05986175 C0.0230685,0.05362175 0.0186624286,0.0440388929 0.0167913571,0.0357931786 L0.798174929,0.0374646071 Z" id="Fill-10" fill="#339DED" mask="url(#mask-4)"></path>
                    </g>
                    <g id="Group-15" transform="translate(19.374643, 37.073953)">
                        <mask id="mask-6" fill="white">
                            <use xlink:href="#path-5"></use>
                        </mask>
                        <g id="Clip-14"></g>
                        <path d="M0.819746571,0.0378755 L0.8229455,0.100832643 L0.0313012143,0.100832643 C0.0357072857,0.0873497857 0.0413808571,0.0747583571 0.0441572857,0.0601612143 C0.0453644286,0.0539212143 0.0408376429,0.0438926429 0.0388458571,0.0355355 C0.299166214,0.0362040714 0.559486571,0.0369840714 0.819746571,0.0378755" id="Fill-13" fill="#339DED" mask="url(#mask-6)"></path>
                    </g>
                    <path d="M18.9441878,11.2394174 C22.5446724,11.2394174 26.1450967,11.2455739 29.745521,11.2346492 C30.5579281,11.2322349 31.348486,11.0695724 32.0996306,10.7432214 C32.2223367,10.689926 32.2621724,10.6491849 32.1800264,10.5083114 C31.4773485,9.30225493 31.4140942,8.02419243 31.7860753,6.70605279 C31.9953939,5.96444457 32.3366531,5.28560779 32.7957296,4.66586064 C32.8448603,4.59946779 32.8770306,4.570436 32.9648503,4.61811814 C34.1618531,5.26780243 35.0215199,6.21239171 35.4948406,7.49648993 C35.5822981,7.7336935 35.6467596,7.97844171 35.6852071,8.2280185 C35.7026503,8.34130886 35.7252842,8.37667814 35.8579492,8.35706207 C36.8670603,8.20804029 37.8712824,8.20049564 38.858846,8.5068685 C39.2886492,8.64019743 39.6807292,8.83961743 40.0236181,9.1363935 C40.1038328,9.20580421 40.120431,9.25698707 40.0869328,9.35555029 C39.604136,10.7763574 38.606191,11.6724196 37.2183992,12.1651753 C36.5698617,12.3954981 35.8935599,12.4752299 35.2082649,12.4573039 C35.0495256,12.4531996 34.9929106,12.5095731 34.9395549,12.6438074 C34.4053942,13.9877196 33.7840778,15.2882953 33.0052292,16.5105274 C30.843176,19.9035646 27.7866903,22.0584353 23.9126671,23.0837221 C22.4627678,23.4674124 20.9869753,23.6661081 19.4891524,23.7245942 C17.7077717,23.7940653 15.9426271,23.6814389 14.2019874,23.2829006 C13.0226089,23.0128024 11.8899467,22.6218692 10.8943556,21.9086892 C9.69059279,21.0463667 8.86442421,19.8843106 8.25910243,18.5524096 C7.68474386,17.288531 7.34523493,15.9589839 7.16301671,14.5855571 C7.0652985,13.8491999 7.03222279,13.1095231 7.01224457,12.368096 C6.99323207,11.6636074 7.52745314,11.2310278 8.14285457,11.2332006 C11.7432789,11.2458756 15.3437635,11.2394174 18.9441878,11.2394174" id="Fill-16" fill="#2496EC"></path>
                    <path d="M5.99172683,33.4511659 C5.99479818,32.1919348 4.96178568,31.1485409 3.70454639,31.1409538 C2.43390782,31.1333309 1.39353175,32.1649552 1.38935444,33.4367405 C1.38520246,34.7157084 2.40843711,35.748238 3.68179175,35.7499906 C4.95581032,35.7517388 5.98864175,34.723917 5.99172683,33.4511659 M4.09282389,37.0988498 C3.82320854,37.0988498 3.55353282,37.0988498 3.28391746,37.0988498 C2.61847996,37.0492363 2.02710068,36.8064798 1.49764782,36.4074588 C-0.116845393,35.1909605 -0.480980036,32.939277 0.674738536,31.3288277 C1.89262496,29.6318263 4.18028139,29.2571895 5.87106604,30.4777316 C5.90094282,30.4993395 5.93208711,30.5190159 5.96449889,30.5408048 C6.01181889,30.4773091 5.99238389,30.4155638 5.99244425,30.358828 C5.99383246,29.3639613 5.99250461,28.3691548 5.99395318,27.3743484 C5.99455675,26.9628938 6.18130175,26.7075227 6.53034711,26.6305673 C6.96117639,26.5356255 7.36689711,26.8433866 7.36744032,27.2823641 C7.37009604,29.4094102 7.38331425,31.536577 7.36098211,33.663442 C7.34390104,35.290248 5.96142068,36.8295363 4.35380818,37.0692145 C4.26725604,37.0821309 4.17985889,37.089072 4.09282389,37.0988498" id="Fill-18" fill="#2596EC"></path>
                    <path d="M14.0658411,33.4394385 C14.064512,32.1821992 13.0286023,31.1468931 11.7659913,31.1408322 C10.506398,31.1348821 9.44700946,32.1929428 9.45558018,33.448311 C9.46439232,34.7264942 10.494387,35.7522035 11.7668966,35.7500341 C13.0383198,35.7478578 14.0671677,34.7137589 14.0658411,33.4394385 M12.1453359,37.0999785 L11.363892,37.0991335 C10.638882,37.0457174 10.0077877,36.7645739 9.44749232,36.3103864 C7.89389946,35.0510346 7.61130732,32.7771396 8.83396196,31.2196839 C9.75338232,30.0484535 10.9783305,29.5701231 12.4348088,29.8363585 C13.8801813,30.1005417 14.8529573,30.9843514 15.2867441,32.3867496 C15.9278577,34.4593535 14.656857,36.5829592 12.5357863,37.0494596 C12.4077688,37.077586 12.2786648,37.1078853 12.1453359,37.0999785" id="Fill-20" fill="#2596EC"></path>
                    <path d="M20.1943894,37.1001837 C19.9341294,37.0997009 19.6738091,37.0992784 19.4134887,37.0989162 C18.6640944,37.0423616 18.0110905,36.7515005 17.4483205,36.2636337 C16.3364212,35.2994887 15.9173012,34.071583 16.2270541,32.6490255 C16.5351169,31.2343748 17.4407155,30.2928034 18.8330944,29.9055519 C20.0465144,29.5680951 21.1854537,29.7954605 22.1709651,30.6225344 C22.4785451,30.8806216 22.5430066,31.2986551 22.3287991,31.5935601 C22.0966655,31.9131512 21.6482119,31.9700076 21.3201709,31.7111962 C21.0010023,31.4593259 20.6582944,31.2665451 20.2538412,31.1847009 C18.9309937,30.9169566 17.6216662,31.891483 17.5212319,33.2370851 C17.4467512,34.2344869 17.8524719,35.0040405 18.7301251,35.470903 C19.6126069,35.9403005 20.4775851,35.8483162 21.2708591,35.2225334 C21.5943734,34.967283 22.0372137,34.9900376 22.2793666,35.2784844 C22.528038,35.5748984 22.4830116,36.0054259 22.1639034,36.2764898 C21.5957012,36.7591055 20.9444476,37.0491819 20.1943894,37.1001837" id="Fill-22" fill="#2596EC"></path>
                    <path d="M15.5630712,6.85910039 C15.1016408,6.85910039 14.6401501,6.85982468 14.1786594,6.85885896 C13.9322212,6.85831575 13.8423494,6.76880611 13.8419872,6.51928968 C13.8407801,5.70639968 13.840599,4.89357004 13.8420476,4.08068004 C13.8425305,3.83037896 13.9311347,3.74050718 14.1792026,3.74008468 C15.1021237,3.73863611 16.0250447,3.73857575 16.9479055,3.74014504 C17.1963958,3.74056754 17.2837326,3.83001682 17.2841551,4.08110254 C17.2854226,4.89399254 17.2852415,5.70688254 17.2842155,6.51971218 C17.2838533,6.76922861 17.1945247,6.85831575 16.947483,6.85885896 C16.4859922,6.85982468 16.0245619,6.85910039 15.5630712,6.85910039" id="Fill-24" fill="#2797EC"></path>
                    <path d="M19.6456947,6.85910039 C19.184204,6.85910039 18.7227133,6.85994539 18.2612829,6.85873825 C18.0249244,6.85813468 17.9310086,6.76681432 17.9304654,6.52888646 C17.9285944,5.71050396 17.928534,4.89206111 17.9305861,4.07367861 C17.9311897,3.83375896 18.0226308,3.74074861 18.2590497,3.74032611 C19.1874633,3.73839468 20.1159372,3.73845504 21.0443508,3.74026575 C21.2833047,3.74068825 21.3734783,3.83128432 21.3740819,4.07150575 C21.3760133,4.88988825 21.3757719,5.70827075 21.3742026,6.52671361 C21.3737801,6.77212575 21.2820976,6.85849682 21.0301065,6.85891932 C20.5686761,6.85964361 20.1071854,6.85910039 19.6456947,6.85910039" id="Fill-26" fill="#2797EC"></path>
                    <path d="M15.565751,10.6039835 C15.1153057,10.6039835 14.6648603,10.6051906 14.2144753,10.6036213 C13.9193289,10.6025953 13.8420114,10.5245535 13.8418303,10.2316403 C13.8412871,9.43534846 13.8412268,8.63899632 13.8418907,7.84270454 C13.8421321,7.56904525 13.9242782,7.48659739 14.1934107,7.48653704 C15.1107185,7.48623525 16.0280868,7.48617489 16.9453946,7.48653704 C17.1965407,7.48665775 17.283636,7.57121811 17.2839982,7.82139846 C17.2852053,8.63422811 17.2852657,9.44699739 17.2840585,10.2597667 C17.283636,10.5170088 17.198291,10.6016899 16.9335043,10.6032592 C16.4775664,10.6059149 16.0216889,10.6039835 15.565751,10.6039835" id="Fill-28" fill="#2696EC"></path>
                    <path d="M19.6534446,7.48642839 C20.1203674,7.48642839 20.5872903,7.48564375 21.0542131,7.48673018 C21.280311,7.48727339 21.3733817,7.57835232 21.3738646,7.80819232 C21.3757356,8.63194661 21.3760374,9.45576125 21.3738042,10.2795759 C21.3731403,10.5091745 21.2842946,10.6015209 21.0527042,10.6023659 C20.1188585,10.6056855 19.1850128,10.6057459 18.2511671,10.6022452 C18.0215081,10.6013398 17.9315156,10.5070016 17.9308517,10.2779463 C17.9285581,9.45413161 17.9284978,8.63031696 17.9308517,7.80650232 C17.9315156,7.57768839 18.0263971,7.48721304 18.252676,7.48673018 C18.7195989,7.48570411 19.1865217,7.48642839 19.6534446,7.48642839" id="Fill-30" fill="#2596EC"></path>
                    <path d="M11.5432493,7.48639821 C12.0046796,7.48639821 12.4660496,7.485855 12.9274196,7.48663964 C13.1660718,7.48706214 13.256185,7.57301071 13.2569093,7.81474107 C13.2592028,8.63300286 13.2589614,9.45120429 13.2571507,10.2694661 C13.2566678,10.5114982 13.1710814,10.6018529 12.930015,10.6025771 C12.0017825,10.605595 11.0734896,10.6056554 10.1451968,10.6025771 C9.90280246,10.6017925 9.81643139,10.5110757 9.81594854,10.2715182 C9.81443961,9.45325643 9.81462068,8.635055 9.81582782,7.81679321 C9.81618996,7.57536464 9.90503568,7.48706214 10.1426014,7.48663964 C10.6094639,7.485855 11.0763868,7.48639821 11.5432493,7.48639821" id="Fill-32" fill="#2696EC"></path>
                    <path d="M27.7758139,7.48642839 C28.2372443,7.48642839 28.6986143,7.48588518 29.160105,7.48660946 C29.3985761,7.48703196 29.4900775,7.57521375 29.4905604,7.81362446 C29.49219,8.63194661 29.49219,9.45020839 29.4906207,10.2685305 C29.4901379,10.5097177 29.4041289,10.601702 29.1636661,10.6024866 C28.2353732,10.6056855 27.30702,10.6055045 26.3787271,10.6026677 C26.1374796,10.6019434 26.0480304,10.5108041 26.0473664,10.2726348 C26.0450729,9.45431268 26.0448314,8.63599054 26.0473664,7.81772875 C26.0481511,7.57002304 26.1394714,7.48679054 26.3915229,7.48654911 C26.8530136,7.48606625 27.3143836,7.48642839 27.7758139,7.48642839" id="Fill-34" fill="#2596EC"></path>
                    <path d="M23.6869676,6.85898571 C23.2255372,6.85898571 22.7641672,6.85983071 22.3027369,6.85862357 C22.0636019,6.85802 21.9771101,6.77074357 21.9768686,6.52961679 C21.976084,5.711355 21.976084,4.89315357 21.9768686,4.07489179 C21.9771101,3.82495286 22.0602219,3.740815 22.3153515,3.74033214 C23.2326594,3.73876286 24.1499672,3.73882321 25.0672147,3.74027179 C25.3301304,3.74069429 25.410164,3.82422857 25.4102847,4.08756679 C25.4107072,4.89484357 25.4107676,5.70212036 25.4102847,6.50939714 C25.4101036,6.7807025 25.3304322,6.85862357 25.0546604,6.858865 C24.5987226,6.85927325 24.1428451,6.85898571 23.6869676,6.85898571" id="Fill-36" fill="#2596EC"></path>
                    <path d="M23.6980491,0.000374214286 C24.1647306,0.000374214286 24.6314724,-0.000531142857 25.0982141,0.000736357143 C25.3187591,0.00140028571 25.4094156,0.0898235 25.4097174,0.309101 C25.4111056,1.1435385 25.4111056,1.977976 25.409657,2.81235314 C25.4093552,3.01503243 25.3208113,3.10906886 25.1214516,3.10961207 C24.1716113,3.111966 23.2216502,3.11184529 22.2717495,3.10979314 C22.0679838,3.10937064 21.9779309,3.0194385 21.9775084,2.81941493 C21.9757581,1.97948493 21.9758184,1.13955493 21.9773877,0.299624929 C21.9777499,0.0916945714 22.0707602,0.00158135714 22.2814066,0.000857071429 C22.7537013,-0.000712214286 23.2258752,0.000374214286 23.6980491,0.000374214286" id="Fill-38" fill="#2495EC"></path>
                    <path d="M23.6943372,10.5969096 C23.2276558,10.59697 22.760914,10.5981771 22.2942325,10.5964268 C22.0603486,10.5955214 21.9773575,10.5119871 21.9770558,10.2787671 C21.97609,9.45531461 21.9761504,8.63192246 21.9770558,7.80846996 C21.9772972,7.57591389 22.0640304,7.48712854 22.291939,7.48688711 C23.2253622,7.48598175 24.1587854,7.48604211 25.092269,7.48688711 C25.32229,7.48706818 25.4096268,7.57434461 25.4099286,7.80599532 C25.4108943,8.63494032 25.411015,9.46388532 25.4098079,10.29277 C25.4094458,10.50402 25.3209018,10.5949178 25.1109797,10.5960646 C24.6387454,10.59866 24.1665715,10.5969096 23.6943372,10.5969096" id="Fill-40" fill="#2495EC"></path>
                    <path d="M41.1095518,36.8720156 C41.2499425,36.771702 41.2884504,36.6106692 41.2122193,36.4425142 C41.1372557,36.2770149 40.9704889,36.1987317 40.7890554,36.2439392 C40.6447414,36.2798517 40.5313304,36.4231395 40.5210696,36.5826031 C40.51099,36.7381435 40.60394,36.9023149 40.7486764,36.9487295 C40.8787461,36.9903156 41.0167225,37.0145792 41.1117246,36.8699635 L41.1095518,36.8720156 Z M40.8837557,37.0869474 C40.6090704,37.0826017 40.3846021,36.855357 40.3947421,36.5915963 C40.4047614,36.3307931 40.6311611,36.1215349 40.8973964,36.126967 C41.16671,36.1325199 41.3783221,36.3484778 41.3741575,36.6135663 C41.3699325,36.8787756 41.1501118,37.0910517 40.8837557,37.0869474 L40.8837557,37.0869474 Z" id="Fill-42" fill="#339DED"></path>
                    <path d="M41.1117367,36.8699514 C41.0167346,37.0145671 40.8787581,36.9903035 40.7486281,36.9487175 C40.6039521,36.9023028 40.5110021,36.7381314 40.5210817,36.582591 C40.5313424,36.4231275 40.6447535,36.2799 40.7890674,36.2439271 C40.970501,36.1987196 41.1372678,36.2770028 41.2122314,36.4425021 C41.2884624,36.6106571 41.2499546,36.77169 41.1095639,36.8719432 C41.1170481,36.7468228 40.9911431,36.6350414 41.0830067,36.49622 C41.1113142,36.4534871 41.0582603,36.3980189 40.9974806,36.3782821 C40.7973967,36.3130964 40.7067403,36.3767128 40.7066196,36.584945 C40.7065592,36.6397493 40.7050503,36.6946139 40.7072231,36.7492975 C40.7087924,36.7902196 40.6929789,36.8472571 40.7568971,36.8524478 C40.8262474,36.8581214 40.809106,36.7993335 40.8138139,36.7588339 C40.8179785,36.7236457 40.8015614,36.676205 40.8591421,36.6699278 C40.9086349,36.6644957 40.949376,36.684655 40.9572224,36.7354153 C40.9714667,36.8264943 41.0260296,36.8643382 41.1117367,36.8699514" id="Fill-44" fill="#EFF7FD"></path>
                    <path d="M40.9702113,36.5060401 C40.9534924,36.4549176 40.9140791,36.4437515 40.8681474,36.445019 C40.8119549,36.446709 40.8152141,36.4881744 40.8166024,36.526139 C40.8186545,36.5820901 40.8584902,36.5796154 40.8975413,36.5749076 C40.9386445,36.5699583 40.9685213,36.5520322 40.9702113,36.5060401 M41.1117488,36.8699333 C41.0260416,36.8643804 40.9714788,36.8265365 40.9572345,36.7354576 C40.9493277,36.6846369 40.9085866,36.6644776 40.8591541,36.6699097 C40.8015734,36.6761869 40.8179906,36.7236276 40.8138259,36.7588158 C40.8091181,36.7993154 40.8261991,36.8581033 40.7569091,36.8524297 C40.6929306,36.847239 40.7088045,36.7902015 40.7072352,36.7492794 C40.705002,36.6945958 40.7065713,36.6397311 40.7066316,36.5849872 C40.7067524,36.3766947 40.7974088,36.3131386 40.9974927,36.378264 C41.0582724,36.3980008 41.1113263,36.453469 41.0830188,36.4962019 C40.9911552,36.6350836 41.1170602,36.7468047 41.1095759,36.8719264 C41.1095759,36.8719854 41.1117488,36.8699333 41.1117488,36.8699333" id="Fill-46" fill="#339DED"></path>
                    <path d="M40.9702113,36.5060401 C40.9685213,36.5520322 40.9386445,36.5699583 40.8975413,36.5749076 C40.8584902,36.5796154 40.8186545,36.5820901 40.8166024,36.526139 C40.8152141,36.4881744 40.8119549,36.446709 40.8681474,36.445019 C40.9140791,36.4437515 40.9534924,36.4549176 40.9702113,36.5060401" id="Fill-48" fill="#EFF7FD"></path>
                </g>
            </g>
        </g>
    </g>
</svg>