<?xml version="1.0" encoding="UTF-8"?>
<svg width="33px" height="40px" viewBox="0 0 33 40" version="1.1" xmlns="http://www.w3.org/2000/svg" xmlns:xlink="http://www.w3.org/1999/xlink">
    <!-- Generator: Sketch 62 (91390) - https://sketch.com -->
    <title>rook</title>
    <desc>Created with Sketch.</desc>
    <g id="Page-1" stroke="none" stroke-width="1" fill="none" fill-rule="evenodd">
        <g id="Kurl-Vendor-Install-Page" transform="translate(-501.000000, -409.000000)" fill="#0091BD" fill-rule="nonzero">
            <g id="Group-14" transform="translate(501.000000, 409.000000)">
                <g id="rook">
                    <path d="M32.8704758,12.4136884 L24.3114045,12.4136884 L24.3114045,9.56066469 L29.9871007,9.56066469 L29.9871007,2.88337507 L25.6468624,2.88337507 L25.6468624,6.67728963 L18.605357,6.67728963 L18.605357,2.88337507 L14.3258214,2.88337507 L14.3258214,6.67728963 L7.10220806,6.67728963 L7.10220806,2.88337507 L3.00478033,2.88337507 L3.00478033,9.56066469 L8.52871993,9.56066469 L8.52871993,12.4136884 L0.151756582,12.4136884 L0.151756582,0.0303513165 L9.95523181,0.0303513165 L9.95523181,3.82426588 L11.4727976,3.82426588 L11.4727976,0.0303513165 L21.4583808,0.0303513165 L21.4583808,3.82426588 L22.7938387,3.82426588 L22.7938387,0.0303513165 L32.8704758,0.0303513165 L32.8704758,12.4136884 Z M29.9263981,17.7858715 L29.9263981,33.5382047 C29.9263981,35.2075271 28.5605888,36.5733364 26.8912664,36.5733364 L6.13096593,36.5733364 C4.46164352,36.5733364 3.09583428,35.2075271 3.09583428,33.5382047 L3.09583428,17.7858715 L29.9263981,17.7858715 L29.9263981,17.7858715 Z M32.7794218,14.9024964 L0.212459215,14.9024964 L0.212459215,33.568556 C0.242810532,36.8161469 2.88337507,39.4263601 6.13096593,39.4263601 L26.8912664,39.4263601 C30.1388573,39.4263601 32.7794218,36.7857956 32.8097731,33.5078534 L32.8097731,14.8721451 L32.7794218,14.9024964 Z" id="Shape"></path>
                    <path d="M16.5111162,23.5222703 C18.2107899,23.5222703 19.6069505,24.9184308 19.6069505,26.6181046 L19.6069505,29.8960467 L13.4152819,29.8960467 L13.4152819,26.6181046 C13.4152819,24.9184308 14.7810911,23.5526216 16.5111162,23.5222703 L16.5111162,23.5222703 Z M16.5111162,20.6692465 C13.233174,20.6692465 10.5622581,23.3401624 10.5622581,26.6181046 L10.5622581,32.7187192 L22.4599742,32.7187192 L22.4599742,26.6181046 C22.4599742,23.3401624 19.7890584,20.6692465 16.5111162,20.6692465 L16.5111162,20.6692465 Z" id="Shape"></path>
                </g>
            </g>
        </g>
    </g>
</svg>