<?xml version="1.0" encoding="UTF-8"?>
<svg width="40px" height="40px" viewBox="0 0 40 40" version="1.1" xmlns="http://www.w3.org/2000/svg" xmlns:xlink="http://www.w3.org/1999/xlink">
    <!-- Generator: Sketch 62 (91390) - https://sketch.com -->
    <title>Velero</title>
    <desc>Created with Sketch.</desc>
    <g id="Page-1" stroke="none" stroke-width="1" fill="none" fill-rule="evenodd">
        <g id="main_spritesheet" transform="translate(-114.000000, -176.000000)" fill-rule="nonzero">
            <g id="Velero" transform="translate(114.000000, 176.000000)">
                <path d="M34.0446171,32.777689 C32.8091368,32.777689 32.2166061,33.2477329 31.5308173,33.7920821 C30.7862674,34.3835124 29.9416354,35.0533023 28.3099244,35.0533023 C26.67802,35.0533023 25.8337662,34.3835124 25.0890684,33.7920821 C24.4034303,33.2477329 23.8110902,32.777689 22.5760619,32.777689 C21.3405816,32.777689 20.7482386,33.2477329 20.0626033,33.7920821 C19.3177122,34.3835124 18.4736489,35.0533023 16.8417445,35.0533023 C15.2098401,35.0533023 14.3657427,34.3835124 13.6210392,33.7920821 C12.9352504,33.2477329 12.3429075,32.777689 11.1078849,32.777689 C9.87286228,32.777689 9.28066716,33.2477329 8.59487837,33.7920821 C8.06461581,34.25873 7.44842501,34.6174707 6.78081916,34.848211 C9.97941843,37.6676088 14.0020789,39.3801465 18.2513845,39.7314907 C18.3702688,39.7412714 18.4896478,39.7507479 18.6092912,39.758746 C19.0372553,39.7864192 19.4677214,39.8053751 19.9026599,39.8053751 C20.3377519,39.8053751 20.768218,39.7864192 21.1961821,39.758746 C21.3158255,39.7507479 21.4349003,39.7412714 21.5542764,39.7314907 C26.7493747,39.2983788 31.5661298,36.8408156 34.9658259,32.8887657 C34.664758,32.8125621 34.3551696,32.7752337 34.0446171,32.7776918" id="Path" fill="#239DE0"></path>
                <path d="M5.37417308,17.9325822 C6.7173183,17.9325822 7.3793746,17.4071889 8.08028941,16.8506736 C8.81968176,16.2636759 9.58424812,15.6566647 11.107882,15.6566647 C12.6315159,15.6566647 13.3960823,16.2636787 14.1356253,16.8506736 C14.8365032,17.4071889 15.4984458,17.9325822 16.8417445,17.9325822 C18.1850433,17.9325822 18.846946,17.4071889 19.5480144,16.8506736 C20.2874067,16.2636759 21.0520868,15.6566647 22.5760619,15.6566647 C24.0993944,15.6566647 24.8642622,16.2636787 25.6036545,16.8506736 C26.3043817,17.4071889 26.9663243,17.9325822 28.3099244,17.9325822 C29.6535245,17.9325822 30.3154301,17.4071889 31.0163819,16.8506736 C31.7556236,16.2636759 32.5206449,15.6566647 34.04462,15.6566647 C35.5682112,15.6566647 36.3332353,16.2636787 37.0728551,16.8506736 C37.7601622,17.3963846 38.4144849,17.9094951 39.70683,17.928903 C39.5293675,16.1436476 39.1093773,14.3909145 38.4584584,12.7191088 C37.8541655,12.5005656 37.2966869,12.1696423 36.8154455,11.7438046 C36.0997089,11.1759163 35.4241586,10.6393775 34.04462,10.6393775 C32.6650813,10.6393775 31.98915,11.1759163 31.2737915,11.7438046 C30.5478164,12.3198814 29.7975828,12.915332 28.3099244,12.915332 C26.822266,12.915332 26.0719186,12.3197307 25.3462847,11.7438046 C24.63104,11.1759163 23.9552963,10.6393775 22.5760619,10.6393775 C21.196637,10.6393775 20.5206318,11.1759163 19.805387,11.7438046 C19.0796024,12.3198814 18.3294029,12.915332 16.8417474,12.915332 C15.3542425,12.915332 14.604043,12.3197307 13.8784091,11.7438046 C13.1630136,11.1759163 12.487307,10.6393775 11.107882,10.6393775 C9.72861064,10.6393775 9.05290397,11.1759163 8.33765924,11.7438046 C7.61187747,12.3197307 6.86167798,12.915332 5.37417308,12.915332 C3.88651465,12.915332 3.13631801,12.3197307 2.41068693,11.7438046 C2.24987344,11.6160124 2.09008351,11.4908702 1.92483457,11.3721366 C1.26333902,12.7611535 0.766493691,14.2227403 0.444415022,15.7271371 C1.45433285,15.8986412 2.07290752,16.3782782 2.66790038,16.8506707 C3.36877823,17.4071889 4.03087433,17.9325822 5.37417024,17.9325822" id="Path" fill="#239DE0"></path>
                <path d="M5.37417308,12.6049244 C6.75344447,12.6049244 7.42930184,12.0684226 8.14454657,11.5006452 C8.87017765,10.9247589 9.62037714,10.3289671 11.107882,10.3289671 C12.5953869,10.3289671 13.3455836,10.9247589 14.0712175,11.5006452 C14.7867665,12.0684198 15.4623196,12.6049244 16.8417445,12.6049244 C18.2211694,12.6049244 18.8968761,12.0684226 19.6124222,11.5006452 C20.3380561,10.9247589 21.0881021,10.3289671 22.5760619,10.3289671 C24.0635668,10.3289671 24.8134621,10.9247589 25.5392467,11.5006452 C26.2547956,12.0684198 26.9304995,12.6049244 28.3099244,12.6049244 C29.6891588,12.6049244 30.3650901,12.0684226 31.0804486,11.5006452 C31.8064237,10.9247589 32.5566573,10.3289671 34.04462,10.3289671 C35.5322016,10.3289671 36.2828162,10.9247589 37.0084103,11.5006452 C37.3986597,11.8383683 37.8354231,12.1182491 38.3053046,12.3317036 C35.3329499,5.09980738 28.4000482,0.279536503 20.5857346,0.0117354891 C12.771421,-0.256065525 5.52478587,4.07826449 2.06430388,11.0897037 C2.25192057,11.2222355 2.42876992,11.3618981 2.60349537,11.5006481 C3.31904149,12.0684226 3.99474816,12.6049244 5.37417308,12.6049244" id="Path" fill="#239DE0"></path>
                <path d="M34.0446171,27.2428503 C32.7731215,27.2428503 32.1673215,27.7237042 31.4667478,28.280029 C30.7350863,28.8608455 29.9059983,29.5189213 28.3099216,29.5189213 C26.7138448,29.5189213 25.8850184,28.8608455 25.1534734,28.280029 C24.4522942,27.7237042 23.8469093,27.2428503 22.5760591,27.2428503 C21.3047568,27.2428503 20.6993719,27.7237042 19.9981926,28.280029 C19.2666476,28.8608455 18.4375227,29.5189213 16.8417445,29.5189213 C15.2459663,29.5189213 14.4168414,28.8608455 13.6852935,28.280029 C12.984265,27.7237042 12.3790336,27.2428503 11.107882,27.2428503 C9.83673042,27.2428503 9.23149622,27.7237042 8.53046768,28.280029 C7.79892267,28.8608455 6.97009914,29.5189213 5.37417308,29.5189213 C3.77839487,29.5189213 2.94926997,28.8608455 2.21772496,28.280029 C2.03219236,28.1327124 1.85269027,27.9917248 1.66625068,27.8627556 C2.65113551,30.1085293 4.0410356,32.1538059 5.76646304,33.8963322 C6.74173034,33.8065996 7.27898842,33.3837904 7.88717675,32.900895 C8.63202811,32.3098827 9.47612834,31.639672 11.107882,31.639672 C12.7397864,31.639672 13.5838497,32.3098798 14.3285873,32.900895 C15.0143761,33.4452441 15.6067162,33.9152852 16.8417417,33.9152852 C18.0769206,33.9152852 18.6691072,33.4452441 19.3552003,32.900895 C20.0995995,32.3098827 20.9441547,31.639672 22.5760591,31.639672 C24.2079635,31.639672 25.0518732,32.3098798 25.7964601,32.900895 C26.4825532,33.4452441 27.0748933,33.9152852 28.3099187,33.9152852 C29.5450948,33.9152852 30.1376283,33.4452441 30.8230389,32.900895 C31.5679671,32.3098827 32.4126018,31.639672 34.0446171,31.639672 C34.6224792,31.6313964 35.1964869,31.7349729 35.7350126,31.9446944 C36.4458408,31.0114154 37.072903,30.0172142 37.6088992,28.9736652 C37.2623213,28.7686343 36.9323762,28.5367087 36.6221054,28.2800262 C35.9215318,27.7237014 35.3157346,27.2428503 34.0446171,27.2428503" id="Path" fill="#239DE0"></path>
                <path d="M39.7458762,18.4462954 C38.2472997,18.4360597 37.484553,17.8378028 36.7509979,17.2558519 C36.0504242,16.6994873 35.3877623,16.1739433 34.0446171,16.1739433 C32.7010937,16.1739433 32.0388043,16.6994873 31.3378554,17.2558519 C30.5986137,17.8428467 29.8335924,18.449858 28.3099216,18.449858 C26.7859465,18.449858 26.0215336,17.8428467 25.281874,17.2558519 C24.5809592,16.6994873 23.9190166,16.1739433 22.5760619,16.1739433 C21.2324589,16.1739433 20.5705164,16.6994873 19.8697921,17.2558519 C19.1299419,17.8428467 18.3655291,18.449858 16.8417445,18.449858 C15.3181106,18.449858 14.5535442,17.8428467 13.8139984,17.2558519 C13.1130835,16.6994873 12.4511808,16.1739433 11.107882,16.1739433 C9.76473681,16.1739433 9.10279425,16.6994873 8.4017657,17.2558519 C7.66252405,17.8428467 6.89780699,18.449858 5.37417308,18.449858 C3.85038564,18.449858 3.08582212,17.8428467 2.34642977,17.2558519 C1.78160934,16.8075672 1.23578458,16.3841922 0.344751031,16.2347886 C0.165359226,17.1921477 0.0567190949,18.1614187 0.019712163,19.1347369 C0.00978073571,19.3900596 -5.385166e-14,19.6450411 -5.385166e-14,19.9027152 C-5.385166e-14,20.1603892 0.00978073571,20.4156721 0.019712163,20.6709948 C0.0238462298,20.7821824 0.0259303226,20.8939814 0.0319949474,21.0047539 C1.33708059,21.1044179 2.07780073,21.6812169 2.73231392,22.2008469 C3.41855763,22.7454974 4.06685265,23.2600835 5.37417308,23.2600835 C6.68149351,23.2600835 7.32963785,22.7454974 8.0158446,22.2008469 C8.73423679,21.6304167 9.54808215,20.9843195 11.107882,20.9843195 C12.6676819,20.9843195 13.4816836,21.6304167 14.1998853,22.2008469 C14.8862798,22.7454974 15.5345776,23.2600835 16.8417445,23.2600835 C18.1489114,23.2600835 18.79736,22.7454974 19.4835667,22.2008469 C20.2018054,21.6304167 21.0158043,20.9843195 22.5760619,20.9843195 C24.1356713,20.9843195 24.9498607,21.6304167 25.6679089,22.2008469 C26.3544568,22.7454974 27.0026011,23.2600835 28.3099216,23.2600835 C29.6171283,23.2600835 30.2657645,22.7454974 30.9519314,22.2008469 C31.6703208,21.6304167 32.4846296,20.9843195 34.0446143,20.9843195 C35.604599,20.9843195 36.4185268,21.6304167 37.136919,22.2008469 C37.7749414,22.7071705 38.3871842,23.1819172 39.5187925,23.2472349 C39.6215282,22.6416993 39.6962105,22.0275847 39.7428396,21.4048912 C39.7614173,21.1614333 39.7765803,20.9175603 39.7856787,20.6718677 L39.7856787,19.1338641 C39.7765803,18.8878672 39.7458733,18.4462925 39.7458733,18.4462925" id="Path" fill="#239DE0"></path>
                <path d="M34.0446171,21.7084721 C32.736728,21.7084721 32.08847,22.2230611 31.402303,22.7680158 C30.6839137,23.3381417 29.8696077,23.9842389 28.3099216,23.9842389 C26.7501217,23.9842389 25.9360858,23.3381417 25.2177306,22.768013 C24.5315238,22.2230611 23.8831919,21.7084721 22.5760591,21.7084721 C21.2687386,21.7084721 20.6201422,22.2230611 19.933745,22.768013 C19.2155433,23.3381389 18.4015046,23.9842389 16.8417445,23.9842389 C15.2819844,23.9842389 14.4679429,23.3381417 13.7497042,22.768013 C13.0633468,22.2230611 12.4150148,21.7084721 11.107882,21.7084721 C9.80074926,21.7084721 9.15241727,22.2230611 8.46617356,22.768013 C7.74797186,23.3381389 6.93393601,23.9842389 5.37417308,23.9842389 C3.81452673,23.9842389 3.00022078,23.3381417 2.28198212,22.768013 C1.6788377,22.2892488 1.10457772,21.8344844 0.0875347414,21.7309906 C0.237383045,23.3754116 0.593000515,24.9945284 1.14605202,26.5503912 C1.75073596,26.7842698 2.3094675,27.1228918 2.79660804,27.5507188 C3.49763658,28.1072341 4.10286794,28.5879317 5.37417308,28.5879317 C6.64532754,28.5879317 7.25070959,28.1072341 7.95158744,27.5507188 C8.68313245,26.9700928 9.51210667,26.3119773 11.1078849,26.3119773 C12.7036631,26.3119773 13.532788,26.97009 14.264333,27.5507188 C14.965208,28.1072341 15.5705901,28.5879317 16.8417445,28.5879317 C18.112899,28.5879317 18.7184346,28.1072341 19.4191589,27.5507188 C20.1507039,26.9700928 20.9799823,26.3119773 22.5760591,26.3119773 C24.1716837,26.3119773 25.0009622,26.97009 25.7323195,27.5507188 C26.4332344,28.1072341 27.0386164,28.5879317 28.3099216,28.5879317 C29.581113,28.5879317 30.186532,28.1072341 30.8874838,27.5507188 C31.6191453,26.9700928 32.4486143,26.3119773 34.0446143,26.3119773 C35.6402389,26.3119773 36.4697022,26.97009 37.2013638,27.5507188 C37.4587426,27.764617 37.730569,27.9605071 38.0149077,28.1369943 C38.6263971,26.8014021 39.0867016,25.4016518 39.3872502,23.9638074 C38.082392,23.8644448 37.3412567,23.2873445 36.6865559,22.7680187 C36.0003889,22.2230639 35.3521309,21.7084721 34.04462,21.7084721" id="Path" fill="#239DE0"></path>
                <path d="M30.8230389,32.9008978 C30.1376311,33.4452441 29.5451005,33.9152881 28.3099216,33.9152881 C27.0748961,33.9152881 26.4825532,33.4452441 25.7964601,32.9008978 C25.051876,32.3098827 24.2079635,31.6396748 22.5760591,31.6396748 C20.9441547,31.6396748 20.0995995,32.3098827 19.3552031,32.9008978 C18.6691101,33.4452441 18.0769235,33.9152881 16.8417445,33.9152881 C15.6067162,33.9152881 15.0143761,33.4452441 14.3285873,32.9008978 C13.5838468,32.3098827 12.7397864,31.6396748 11.1078792,31.6396748 C9.47612834,31.6396748 8.63202811,32.3098827 7.8871739,32.9008978 C7.27898842,33.3837932 6.74173034,33.8065996 5.7664602,33.8963322 C6.09282686,34.2258065 6.43253683,34.5419745 6.78081347,34.848211 C7.44841933,34.6174707 8.06461012,34.25873 8.59487268,33.7920821 C9.28066148,33.2477329 9.87285091,32.777689 11.1078792,32.777689 C12.3429075,32.777689 12.9352476,33.2477329 13.6210335,33.7920821 C14.3657342,34.3835124 15.2098344,35.0533023 16.8417417,35.0533023 C18.4736489,35.0533023 19.3177093,34.3835124 20.0625977,33.7920821 C20.7482358,33.2477329 21.3405759,32.777689 22.5760591,32.777689 C23.8110845,32.777689 24.4034246,33.2477329 25.0890627,33.7920821 C25.8337634,34.3835124 26.6780143,35.0533023 28.3099187,35.0533023 C29.9416354,35.0533023 30.7862645,34.3835124 31.5308145,33.7920821 C32.2166033,33.2477329 32.8091339,32.777689 34.0446114,32.777689 C34.355164,32.7752322 34.6647524,32.8125615 34.9658203,32.8887657 C35.23081,32.5816194 35.4885977,32.267689 35.7350097,31.9446973 C35.1964844,31.7349743 34.6224765,31.6313978 34.0446143,31.6396748 C32.4125962,31.6396748 31.5679671,32.3098827 30.8230361,32.9008978" id="Path" fill="#FFFFFF"></path>
                <path d="M34.0446171,26.3119773 C32.4486143,26.3119773 31.6191453,26.9700928 30.8874866,27.5507217 C30.1865348,28.107237 29.5811158,28.5879346 28.3099216,28.5879346 C27.0386164,28.5879346 26.4332344,28.107237 25.7323195,27.5507217 C25.000965,26.9700957 24.1716866,26.3119773 22.5760619,26.3119773 C20.9799823,26.3119773 20.1507039,26.9700928 19.4191589,27.5507217 C18.7184317,28.107237 18.112899,28.5879346 16.8417474,28.5879346 C15.5705957,28.5879346 14.9652109,28.107237 14.264333,27.5507217 C13.532788,26.9700957 12.7036631,26.3119773 11.1078849,26.3119773 C9.51210667,26.3119773 8.68313245,26.9700928 7.9515846,27.5507217 C7.25070959,28.107237 6.64532754,28.5879346 5.37417308,28.5879346 C4.1028651,28.5879346 3.49763658,28.107237 2.79660804,27.5507217 C2.30946606,27.1228966 1.75073488,26.7842748 1.14605202,26.5503941 C1.30405829,26.9954175 1.47745784,27.4328714 1.66625068,27.8627556 C1.85269027,27.9917248 2.03219521,28.1327096 2.21772496,28.280029 C2.94926997,28.8608455 3.77839487,29.5189213 5.37417308,29.5189213 C6.97009914,29.5189213 7.79892267,28.8608455 8.53046768,28.280029 C9.23149622,27.7237042 9.83672758,27.2428531 11.107882,27.2428531 C12.3790365,27.2428531 12.984265,27.7237042 13.6852935,28.280029 C14.4168414,28.8608455 15.2459663,29.5189213 16.8417445,29.5189213 C18.4375227,29.5189213 19.2666476,28.8608455 19.9981926,28.280029 C20.6993719,27.7237042 21.3047568,27.2428531 22.5760591,27.2428531 C23.8469121,27.2428531 24.4522942,27.7237042 25.1534734,28.280029 C25.8850184,28.8608455 26.713842,29.5189213 28.3099216,29.5189213 C29.9060011,29.5189213 30.7350919,28.8608455 31.4667478,28.280029 C32.1673215,27.7237042 32.7731186,27.2428531 34.0446171,27.2428531 C35.3157346,27.2428531 35.9215318,27.7237042 36.6221054,28.280029 C36.9323765,28.5367103 37.2623216,28.768635 37.6088992,28.9736652 C37.7506819,28.6984038 37.88602,28.4195135 38.0149134,28.1369943 C37.7305738,27.9605085 37.4587472,27.7646183 37.2013695,27.5507188 C36.4697079,26.9700928 35.6402418,26.3119773 34.04462,26.3119773" id="Path" fill="#FFFFFF"></path>
                <path d="M34.0446171,20.9843139 C32.4846267,20.9843139 31.6703236,21.6304167 30.9519343,22.2008497 C30.2657673,22.7455002 29.6171311,23.2600863 28.3099216,23.2600863 C27.0026011,23.2600863 26.3544568,22.7455002 25.6679089,22.2008497 C24.9498607,21.6304196 24.1356713,20.9843139 22.5760591,20.9843139 C21.0158071,20.9843139 20.2018054,21.6304167 19.4835667,22.2008497 C18.79736,22.7455002 18.1488744,23.2600863 16.8417445,23.2600863 C15.5346146,23.2600863 14.8862798,22.7455002 14.1998825,22.2008497 C13.4816808,21.6304196 12.6676421,20.9843139 11.107882,20.9843139 C9.54812195,20.9843139 8.73408326,21.6304167 8.0158446,22.2008497 C7.32948716,22.7455002 6.68145371,23.2600863 5.37417308,23.2600863 C4.06700619,23.2600863 3.41855763,22.7455002 2.73231392,22.2008497 C2.07780073,21.6812197 1.33708059,21.1044207 0.0319977906,21.0047567 C0.0453041404,21.2482118 0.0653205297,21.4900404 0.0875347414,21.7309934 C1.10458056,21.8344872 1.6788377,22.2892545 2.28198212,22.7680158 C3.00022078,23.3381417 3.81452389,23.9842389 5.37417308,23.9842389 C6.93393601,23.9842389 7.74797186,23.3381417 8.4661764,22.768013 C9.15241727,22.2230611 9.80071514,21.7084721 11.1078849,21.7084721 C12.4150546,21.7084721 13.0633496,22.2230611 13.7497071,22.768013 C14.4679457,23.3381389 15.2819446,23.9842389 16.8417445,23.9842389 C18.4015444,23.9842389 19.2155461,23.3381417 19.9337478,22.768013 C20.6201422,22.2230611 21.2687415,21.7084721 22.5760619,21.7084721 C23.8831919,21.7084721 24.5315267,22.2230611 25.2177334,22.768013 C25.9360858,23.3381389 26.7501245,23.9842389 28.3099244,23.9842389 C29.8696106,23.9842389 30.6839137,23.3381417 31.402303,22.768013 C32.08847,22.2230611 32.736728,21.7084721 34.0446171,21.7084721 C35.3521252,21.7084721 36.0003833,22.2230611 36.686553,22.768013 C37.3412567,23.2873388 38.082392,23.864442 39.3872502,23.9638017 C39.436913,23.7268663 39.4782338,23.4871245 39.5187954,23.2470785 C38.387187,23.1819115 37.7749442,22.7071677 37.1369218,22.2008412 C36.4185325,21.6304139 35.6046075,20.9843139 34.0446171,20.9843139" id="Path" fill="#FFFFFF"></path>
                <path d="M5.37417308,18.4498608 C6.89780699,18.4498608 7.66252405,17.8428467 8.4017657,17.2558548 C9.10264356,16.6994901 9.76473681,16.1739462 11.107882,16.1739462 C12.4511808,16.1739462 13.1130835,16.6994901 13.8139984,17.2558548 C14.5535442,17.8428496 15.3181106,18.4498608 16.8417445,18.4498608 C18.3653784,18.4498608 19.1299419,17.8428467 19.8697921,17.2558548 C20.5705164,16.6994901 21.2324589,16.1739462 22.5760591,16.1739462 C23.9190166,16.1739462 24.5809592,16.6994901 25.281874,17.2558548 C26.0215336,17.8428496 26.7859465,18.4498608 28.3099216,18.4498608 C29.8335953,18.4498608 30.5986109,17.8428467 31.3378525,17.2558548 C32.0388043,16.6994901 32.7010881,16.1739462 34.0446143,16.1739462 C35.3877595,16.1739462 36.0504242,16.6994901 36.750995,17.2558548 C37.4845502,17.8378085 38.2472969,18.4376918 39.7458733,18.4479303 L39.7428425,18.400542 C39.7310857,18.2432911 39.7223712,18.0851332 39.70683,17.9289058 C38.4144849,17.9094951 37.7601594,17.3963874 37.0728551,16.8506736 C36.3332325,16.2636787 35.5682141,15.6566675 34.0446171,15.6566675 C32.520642,15.6566675 31.7556236,16.2636816 31.0163819,16.8506736 C30.3154273,17.4071917 29.6535245,17.9325822 28.3099244,17.9325822 C26.9663243,17.9325822 26.3043789,17.4071917 25.6036545,16.8506736 C24.8642594,16.2636787 24.0993916,15.6566675 22.5760619,15.6566675 C21.0520868,15.6566675 20.2874096,16.2636816 19.5480144,16.8506736 C18.8469489,17.4071917 18.1850433,17.9325822 16.8417445,17.9325822 C15.4984458,17.9325822 14.8365032,17.4071917 14.1356282,16.8506736 C13.3960823,16.2636787 12.6315159,15.6566675 11.1078849,15.6566675 C9.58425381,15.6566675 8.8196846,16.2636816 8.08029226,16.8506736 C7.3793746,17.4071917 6.7173183,17.9325822 5.37417308,17.9325822 C4.03087717,17.9325822 3.36878392,17.4071917 2.66790606,16.8506736 C2.07291036,16.3782811 1.45433569,15.8986469 0.444417865,15.72714 C0.408442386,15.8953828 0.376293904,16.0651042 0.344753874,16.2347914 C1.23578458,16.3841922 1.78161219,16.8075701 2.34642977,17.2558548 C3.08582212,17.8428496 3.85038848,18.4498608 5.37417308,18.4498608" id="Path" fill="#FFFFFF"></path>
                <path d="M5.37417308,12.9153292 C6.86167798,12.9153292 7.61187463,12.3197278 8.33765924,11.7438017 C9.05290397,11.1759134 9.7286078,10.6393747 11.107882,10.6393747 C12.487307,10.6393747 13.1630108,11.1759134 13.8784062,11.7438017 C14.6040373,12.3197278 15.3542368,12.9153292 16.8417417,12.9153292 C18.3293973,12.9153292 19.0795967,12.3198814 19.8053814,11.7438017 C20.5206261,11.1759134 21.1966313,10.6393747 22.5760591,10.6393747 C23.9552935,10.6393747 24.6310343,11.1759134 25.346279,11.7438017 C26.0719101,12.3197278 26.8222233,12.9153292 28.3099187,12.9153292 C29.7976141,12.9153292 30.5478136,12.3198814 31.273783,11.7438017 C31.9891415,11.1759134 32.6650728,10.6393747 34.0446114,10.6393747 C35.4241501,10.6393747 36.0997032,11.1759134 36.8154398,11.7438017 C37.2966816,12.1696382 37.8541588,12.5005622 38.4584499,12.7191088 C38.4080308,12.5895311 38.357987,12.4598056 38.3052932,12.3317064 C37.8354117,12.1182519 37.3986484,11.8383711 37.008399,11.5006481 C36.2828048,10.9247618 35.5321902,10.3289671 34.0446086,10.3289671 C32.5566488,10.3289671 31.8064123,10.9247618 31.0804372,11.5006481 C30.3650787,12.0684226 29.6891503,12.6049244 28.3099102,12.6049244 C26.9304853,12.6049244 26.2547814,12.0684255 25.5392325,11.5006481 C24.8134479,10.9247618 24.0635554,10.3289671 22.5760505,10.3289671 C21.0880879,10.3289671 20.3380448,10.9247618 19.6124109,11.5006481 C18.8968619,12.0684226 18.2211581,12.6049244 16.8417331,12.6049244 C15.4623082,12.6049244 14.7867551,12.0684255 14.0712061,11.5006481 C13.3455722,10.9247618 12.5953756,10.3289671 11.1078707,10.3289671 C9.62036576,10.3289671 8.87016628,10.9247589 8.1445352,11.5006452 C7.42929047,12.0684198 6.7534331,12.6049216 5.37416171,12.6049216 C3.99473679,12.6049216 3.31903011,12.0684226 2.603484,11.5006452 C2.4287557,11.3618953 2.2519092,11.2222355 2.06429251,11.0897008 C2.01750989,11.1839058 1.9701245,11.2773545 1.9248232,11.3721309 C2.09007214,11.4908645 2.24986207,11.6160039 2.41067556,11.7437989 C3.13630663,12.319725 3.88650328,12.9153292 5.37416171,12.9153292" id="Path" fill="#FFFFFF"></path>
            </g>
        </g>
    </g>
</svg>