<?xml version="1.0" encoding="UTF-8"?>
<svg width="44px" height="41px" viewBox="0 0 44 41" version="1.1" xmlns="http://www.w3.org/2000/svg" xmlns:xlink="http://www.w3.org/1999/xlink">
    <!-- Generator: Sketch 62 (91390) - https://sketch.com -->
    <title>Combined-Shape</title>
    <desc>Created with Sketch.</desc>
    <g id="Page-1" stroke="none" stroke-width="1" fill="none" fill-rule="evenodd">
        <g id="Kurl-Vendor-Install-Page" transform="translate(-495.000000, -727.000000)" fill="#326DE6" fill-rule="nonzero" stroke="#326DE6" stroke-width="1.2387205">
            <g id="Group-19" transform="translate(496.000000, 728.000000)">
                <path d="M20.9352408,0 C20.6437869,0 20.5104046,0.00191403759 20.3497987,0.0109972659 C20.1460463,0.0225208133 19.9742866,0.0447037294 19.9197737,0.0477137078 L4.92586792,6.99571119 C4.31035894,7.2718777 3.87958472,7.77696414 3.72153068,8.42275432 L0.0406366666,23.9446868 C-0.0831196198,24.6189433 0.0792826467,25.2955621 0.480165514,25.8366017 L10.8146874,38.1315107 C11.3286658,38.625679 12.054238,38.9467995 12.7284924,38.9857489 L29.2944996,38.9886364 C29.9936386,39.0633244 30.6618844,38.7675752 31.1195948,38.1683622 L41.4709818,25.8588816 C41.8839449,25.3030168 42.0590019,24.6192583 41.9825047,23.9693171 L38.2572258,8.55285525 C38.0589746,7.94290325 37.5751469,7.41429007 36.9402577,7.088228 L21.9443136,0.186439858 C21.6742327,0.0566041578 21.3406169,0 20.9352408,0 Z M20.8151023,9.57134261 C23.4938996,9.57134261 25.5850318,10.5928411 27.0365235,12.6168284 C28.4576447,14.5984662 29.1608206,17.2917974 29.1608206,20.6893158 C29.1608206,24.0853507 28.458261,26.8011225 27.0397196,28.8292402 C25.589142,30.9031606 23.4966757,31.9511879 20.8151023,31.9511879 C18.1346943,31.9511879 16.0311601,30.9042852 14.5557231,28.8324919 C13.1109562,26.8037651 12.3952703,24.0866545 12.3952703,20.6893158 C12.3952703,17.2904858 13.111592,14.5957973 14.5589797,12.6135733 C16.0352893,10.5917401 18.1374726,9.57134261 20.8151023,9.57134261 Z" id="Combined-Shape"></path>
            </g>
        </g>
    </g>
</svg>