<?xml version="1.0" encoding="UTF-8"?>
<svg width="40px" height="40px" viewBox="0 0 40 40" version="1.1" xmlns="http://www.w3.org/2000/svg" xmlns:xlink="http://www.w3.org/1999/xlink">
    <!-- Generator: Sketch 62 (91390) - https://sketch.com -->
    <title>weaveworks</title>
    <desc>Created with Sketch.</desc>
    <g id="Page-1" stroke="none" stroke-width="1" fill="none" fill-rule="evenodd">
        <g id="Kurl-Vendor-Install-Page" transform="translate(-495.000000, -250.000000)" fill-rule="nonzero">
            <g id="Group-6" transform="translate(495.000000, 250.000000)">
                <g id="weaveworks">
                    <path d="M11.2941235,22.166795 L31.5277793,4.21056323 C29.9211171,2.95610031 28.1185686,1.94105382 26.1656429,1.22280455 L11.2980808,14.4203876 L11.2980808,22.166795 L11.2941235,22.166795 Z M5.48085533,19.5807019 L0,24.4481763 C0.498619329,26.4624401 1.30986506,28.357985 2.3803137,30.0794089 L5.48085533,27.329088 L5.48085533,19.5787233 L5.48085533,19.5807019 Z" id="Shape" fill="#32324B"></path>
                    <path d="M22.1173288,4.8180082 L22.1173288,0.203800758 C21.1873642,0.0712313328 20.2415704,0 19.2759901,0 C18.2668796,0 17.2735982,0.075188629 16.3040606,0.221608591 L16.3040606,9.97634388 L22.1173288,4.8180082 Z M22.1173288,31.95121 L22.1173288,12.5604583 L16.3040606,17.7286873 L16.3040606,39.2306565 C17.2735982,39.3750978 18.2629223,39.4522651 19.2759901,39.4522651 C20.4592217,39.4522651 21.6147522,39.3335462 22.7425816,39.1356814 L38.3105851,25.304931 C38.8388842,23.5241476 39.1277668,21.6444319 39.1277668,19.7053568 C39.1277668,18.7753921 39.0604928,17.8850005 38.9378166,16.9946088 L22.099521,31.9136157 L22.1173288,31.95121 Z" id="Shape" fill="#00D2FF"></path>
                    <path d="M22.1173288,26.2566607 L37.7150121,12.416017 C36.9829122,10.5679597 35.9738017,8.85445039 34.7272534,7.33089133 L22.1232648,18.5142106 L22.1232648,26.2586394 L22.1173288,26.2566607 Z M16.3040606,23.6725463 L11.2980808,28.11659 L11.2980808,1.66206443 C9.12156789,2.61181553 7.16270624,3.93750978 5.48085533,5.54812936 L5.48085533,33.9021571 C6.79072039,35.162556 8.27074919,36.2448765 9.89324066,37.1075671 L16.3040606,31.4209323 L16.3040606,23.6725463 Z" id="Shape" fill="#FF4B19"></path>
                </g>
            </g>
        </g>
    </g>
</svg>