<?xml version="1.0" encoding="UTF-8"?>
<svg width="314px" height="700px" viewBox="0 0 314 700" version="1.1" xmlns="http://www.w3.org/2000/svg" xmlns:xlink="http://www.w3.org/1999/xlink">
    <!-- Generator: Sketch 54.1 (76490) - https://sketchapp.com -->
    <title>main_spritesheet</title>
    <desc>Created with Sketch.</desc>
    <g id="main_spritesheet" stroke="none" stroke-width="1" fill="none" fill-rule="evenodd">
        <g id="Help" transform="translate(6.000000, 48.000000)">
            <g id="Oval-6" fill="#FFFFFF" stroke="#9B9B9B">
                <circle id="Oval" cx="7.5" cy="7.5" r="7"></circle>
            </g>
            <path d="M6.47866667,10.5413333 L8.14622219,10.5413333 L8.14622219,12.0968888 L6.47866667,12.0968888 L6.47866667,10.5413333 Z M4.5,6.03644444 C4.5,5.58014586 4.56844376,5.1653352 4.70533333,4.792 C4.84222291,4.4186648 5.04133203,4.09926058 5.30266667,3.83377777 C5.56400131,3.56829496 5.87925741,3.36296368 6.24844444,3.21777777 C6.61763148,3.07259186 7.03036809,3 7.48666667,3 C7.8682982,3 8.2229613,3.05599944 8.55066663,3.168 C8.87837196,3.28000056 9.16459134,3.44177672 9.40933332,3.65333333 C9.65407522,3.86488994 9.84696232,4.12829472 9.98799992,4.44355555 C10.1290377,4.75881639 10.1995555,5.11555356 10.1995555,5.51377777 C10.1995555,5.8041496 10.1684447,6.05511005 10.1062222,6.26666666 C10.0439997,6.47822328 9.96103752,6.66073997 9.85733332,6.81422222 C9.75362912,6.96770447 9.63540802,7.10459199 9.50266662,7.22488888 C9.36992532,7.34518578 9.23718582,7.46340682 9.10444441,7.57955555 C8.94681401,7.71229696 8.80163028,7.84088826 8.66888885,7.96533333 C8.53614752,8.0897784 8.4200005,8.22873997 8.32044441,8.38222222 C8.22088841,8.53570447 8.14414841,8.71614711 8.09022222,8.92355555 C8.03629603,9.130964 8.00933333,9.38399848 8.00933333,9.68266664 L6.66533333,9.68266664 C6.66533333,9.31762782 6.68399981,9.00859386 6.72133333,8.75555555 C6.75866685,8.50251725 6.8188144,8.28059354 6.90177778,8.08977777 C6.98474116,7.898962 7.08636977,7.73096368 7.20666667,7.58577777 C7.32696356,7.44059186 7.47007324,7.29748218 7.636,7.15644444 C7.7687414,7.04029571 7.89525866,6.93244494 8.01555556,6.83288888 C8.13585241,6.73333283 8.24370325,6.623408 8.33911108,6.50311111 C8.43451899,6.38281421 8.50918494,6.24800074 8.56311108,6.09866666 C8.6170373,5.94933258 8.64399996,5.770964 8.64399996,5.56355555 C8.64399996,5.31466542 8.60044485,5.10103792 8.5133333,4.92266666 C8.42622174,4.7442954 8.32044503,4.60118572 8.19599996,4.49333333 C8.07155493,4.38548094 7.93881552,4.30666691 7.79777778,4.25688888 C7.65674004,4.20711086 7.53229684,4.18222222 7.42444444,4.18222222 C6.9100715,4.18222222 6.53051974,4.35022054 6.28577778,4.68622222 C6.04103581,5.0222239 5.91866667,5.47229347 5.91866667,6.03644444 L4.5,6.03644444 Z" id="?" fill="#9B9B9B" fill-rule="nonzero"></path>
        </g>
        <g id="Group-5" transform="translate(5.000000, 7.000000)" fill-rule="nonzero">
            <path d="M28.2492546,6.67216316 C28.0722485,6.10431949 27.6474341,5.6429465 27.116416,5.35902467 L16.3190482,0.177451148 C16.0358386,0.0354902296 15.7172277,0 15.4340181,0 C15.1508084,0 14.8321976,0 14.5489879,0.0709804591 L3.75162013,5.28804421 C3.22060197,5.53647581 2.83118871,5.9978488 2.68958389,6.6011827 L0.0344934641,18.2774682 C-0.0717101534,18.8808021 0.0698946699,19.484136 0.423906714,19.9809993 L7.89356121,29.2439492 C8.31837568,29.6698319 8.92019618,29.9537538 9.52201668,29.989244 L21.4168218,29.989244 C22.0540435,30.0602244 22.655864,29.7763026 23.0452773,29.2439492 L30.5149317,19.9809993 C30.8689438,19.484136 31.0105486,18.8808021 30.9397462,18.2774682 L28.2492546,6.67216316 Z" id="path10349" fill="#326DE6"></path>
            <path d="M6.85987842,15.9492401 C7.04164225,15.7595735 7.23525733,15.5560801 7.44072948,15.3387538 C7.64620164,15.1214275 7.84771938,14.9041044 8.04528875,14.6867781 C8.24285813,14.4694518 8.43054622,14.2600314 8.60835866,14.0585106 C8.7861711,13.8569899 8.93829724,13.6811558 9.06474164,13.531003 L10.7598784,13.531003 C10.3647397,13.9735584 9.94787453,14.4319125 9.50927052,14.906079 C9.0706665,15.3802455 8.6300934,15.8425509 8.18753799,16.2930091 C8.42462125,16.4905785 8.67355493,16.7296339 8.9343465,17.0101824 C9.19513808,17.2907309 9.44802309,17.5890562 9.69300912,17.9051672 C9.93799515,18.2212782 10.1671722,18.5373844 10.3805471,18.8534954 C10.593922,19.1696064 10.7717318,19.4620047 10.9139818,19.7306991 L9.25440729,19.7306991 C9.11215734,19.4857131 8.94817722,19.2288767 8.76246201,18.9601824 C8.57674679,18.691488 8.37720471,18.4307004 8.16382979,18.1778116 C7.95045486,17.9249227 7.73313181,17.6858674 7.5118541,17.4606383 C7.2905764,17.2354092 7.07325335,17.0437698 6.85987842,16.8857143 L6.85987842,19.7306991 L5.42553191,19.7306991 L5.42553191,10.768997 L6.85987842,10.5319149 L6.85987842,15.9492401 Z M17.0425532,19.5410334 C16.7659561,19.6121584 16.4063852,19.685258 15.9638298,19.7603343 C15.5212744,19.8354107 15.035261,19.8729483 14.5057751,19.8729483 C14.0079002,19.8729483 13.5910351,19.8018244 13.2551672,19.6595745 C12.9192992,19.5173245 12.6506089,19.3197581 12.4490881,19.0668693 C12.2475674,18.8139805 12.1033439,18.5117039 12.0164134,18.1600304 C11.9294828,17.8083569 11.8860182,17.4231024 11.8860182,17.0042553 L11.8860182,13.531003 L13.3203647,13.531003 L13.3203647,16.7790274 C13.3203647,17.4428605 13.4171723,17.9170199 13.6107903,18.2015198 C13.8044083,18.4860197 14.1422468,18.6282675 14.6243161,18.6282675 C14.7981772,18.6282675 14.9819139,18.6203648 15.1755319,18.6045593 C15.3691499,18.5887537 15.5133734,18.5689971 15.6082067,18.5452888 L15.6082067,13.531003 L17.0425532,13.531003 L17.0425532,19.5410334 Z M22.4006079,14.8231003 C22.2820663,14.7835864 22.1180862,14.7420975 21.9086626,14.6986322 C21.6992391,14.655167 21.4562324,14.6334347 21.1796353,14.6334347 C21.0215798,14.6334347 20.8536483,14.64924 20.6758359,14.6808511 C20.4980234,14.7124622 20.3735566,14.7401215 20.3024316,14.7638298 L20.3024316,19.7306991 L18.8680851,19.7306991 L18.8680851,13.8273556 C19.1446822,13.7246195 19.4904235,13.627812 19.9053191,13.5369301 C20.3202148,13.4460482 20.7805446,13.4006079 21.2863222,13.4006079 C21.3811555,13.4006079 21.4917927,13.4065349 21.6182371,13.4183891 C21.7446815,13.4302432 21.871124,13.4460485 21.9975684,13.4658055 C22.1240128,13.4855624 22.246504,13.5092704 22.3650456,13.5369301 C22.4835872,13.5645898 22.5784191,13.5902734 22.6495441,13.6139818 L22.4006079,14.8231003 Z M25.8027356,19.8492401 C25.3759857,19.8413373 25.0223418,19.7939214 24.7417933,19.7069909 C24.4612448,19.6200604 24.2379948,19.4955935 24.0720365,19.3335866 C23.9060782,19.1715797 23.789514,18.970062 23.7223404,18.7290274 C23.6551668,18.4879927 23.6215805,18.2133754 23.6215805,17.9051672 L23.6215805,10.768997 L25.0559271,10.5319149 L25.0559271,17.6325228 C25.0559271,17.8063838 25.0697567,17.952583 25.0974164,18.0711246 C25.1250761,18.1896662 25.1744677,18.2904251 25.2455927,18.3734043 C25.3167177,18.4563834 25.4135252,18.5196046 25.5360182,18.5630699 C25.6585113,18.6065352 25.8145887,18.6401215 26.0042553,18.6638298 L25.8027356,19.8492401 Z" id="kurl" fill="#FFFFFF"></path>
        </g>
        <g id="Group" transform="translate(41.000000, 7.000000)" fill-rule="nonzero">
            <path d="M28.2780744,6.66221655 C28.1008878,6.0952194 27.6756399,5.63453421 27.1440801,5.35103563 L16.3356969,0.17718661 C16.0521983,0.0354373221 15.7332624,-4.97379915e-14 15.4497638,-4.97379915e-14 C15.1662652,-4.97379915e-14 14.8473293,-4.97379915e-14 14.5638308,0.0708746442 L3.75544753,5.28016099 C3.22388763,5.52822224 2.83407708,5.98890743 2.6923278,6.59134191 L0.0345286543,18.2502209 C-0.071783312,18.8526553 0.0699659763,19.4550898 0.424339183,19.9512123 L7.90161421,29.2003534 C8.32686208,29.6256013 8.92929655,29.9090998 9.53173103,29.9445372 L21.4386712,29.9445372 C22.076543,30.0154118 22.6789775,29.7319132 23.0687881,29.2003534 L30.546063,19.9512123 C30.9004362,19.4550898 31.0421855,18.8526553 30.9713109,18.2502209 L28.2780744,6.66221655 Z" id="path10349" fill="#326DE6"></path>
            <path d="M26.6125203,17.7895357 L26.6125203,17.7895357 C26.5770829,17.7895357 26.5416456,17.7895357 26.5416456,17.7540984 C26.5416456,17.718661 26.470771,17.718661 26.3998963,17.718661 C26.258147,17.6832237 26.1163978,17.6832237 25.9746485,17.6832237 C25.9037738,17.6832237 25.8328992,17.6832237 25.7620245,17.6477864 L25.7265872,17.6477864 C25.3367767,17.6123491 24.9115288,17.5414744 24.5217183,17.4351625 C24.4154063,17.3997251 24.3090943,17.2934132 24.273657,17.1871012 C24.3090943,17.1871012 24.273657,17.1871012 24.273657,17.1871012 L24.273657,17.1871012 L23.9901584,17.1162266 C24.1319077,16.0885442 24.0610331,15.0254246 23.8484091,13.9977422 C23.6003479,12.9700599 23.1751,11.9778149 22.6081029,11.0918818 L22.8207268,10.8792579 L22.8207268,10.8792579 L22.8207268,10.8438206 C22.8207268,10.7375086 22.8561641,10.5957593 22.9270388,10.5248847 C23.2459747,10.2413861 23.5649106,10.0287621 23.9192838,9.81613822 L23.9192838,9.81613822 C23.9901584,9.78070089 24.0610331,9.74526357 24.1319077,9.70982625 C24.273657,9.6389516 24.379969,9.56807696 24.5217183,9.49720232 C24.5571556,9.46176499 24.5925929,9.46176499 24.6280302,9.42632767 C24.6634676,9.39089035 24.6280302,9.39089035 24.6280302,9.35545303 L24.6280302,9.35545303 C24.9469661,9.10739177 25.0178408,8.68214391 24.7697795,8.36320801 C24.6634676,8.22145872 24.4508436,8.11514676 24.273657,8.11514676 C24.0964704,8.11514676 23.9192838,8.1860214 23.7775345,8.29233337 L23.7775345,8.29233337 L23.7420972,8.32777069 C23.7066599,8.36320801 23.6712225,8.39864533 23.6357852,8.39864533 C23.5294732,8.5049573 23.4231613,8.61126926 23.3522866,8.71758123 C23.3168493,8.78845588 23.2459747,8.8238932 23.2105373,8.85933052 L23.2105373,8.85933052 C22.9624761,9.1428291 22.6435402,9.42632767 22.3246043,9.6389516 C22.2537297,9.67438893 22.182855,9.70982625 22.1119804,9.70982625 C22.076543,9.70982625 22.0056684,9.70982625 21.9702311,9.67438893 L21.9347938,9.67438893 L21.6512952,9.85157554 C21.3677966,9.56807696 21.0488607,9.28457838 20.7653621,9.00107981 C19.4541812,7.97339747 17.8240644,7.33552567 16.1585103,7.15833906 L16.1230729,6.87484048 L16.1230729,6.87484048 L16.1230729,6.91027781 C16.016761,6.83940316 15.9813236,6.73309119 15.9458863,6.62677923 C15.9458863,6.23696869 15.9458863,5.84715814 16.016761,5.42191028 L16.016761,5.38647296 C16.016761,5.31559831 16.0521983,5.24472367 16.0521983,5.17384902 C16.0876356,5.03209973 16.0876356,4.89035045 16.1230729,4.74860116 L16.1230729,4.53597723 L16.1230729,4.53597723 C16.1585103,4.18160401 15.8750117,3.82723078 15.5206385,3.79179346 C15.3080145,3.75635614 15.0953906,3.86266811 14.918204,4.03985472 C14.7764547,4.18160401 14.7055801,4.35879062 14.7055801,4.53597723 L14.7055801,4.53597723 L14.7055801,4.71316384 C14.7055801,4.85491312 14.7410174,4.99666241 14.7764547,5.1384117 C14.811892,5.20928635 14.811892,5.28016099 14.811892,5.35103563 L14.811892,5.38647296 C14.8827667,5.7762835 14.8827667,6.16609404 14.8827667,6.59134191 C14.8473293,6.69765387 14.811892,6.80396584 14.7055801,6.87484048 L14.7055801,6.94571513 L14.7055801,6.94571513 L14.6701427,7.2292137 C14.2803322,7.26465103 13.8905216,7.33552567 13.4652738,7.40640031 C11.7997196,7.76077353 10.2759148,8.64670659 9.10648316,9.88701286 L8.89385923,9.74526357 L8.85842191,9.74526357 C8.82298459,9.74526357 8.78754726,9.78070089 8.71667262,9.78070089 C8.64579798,9.78070089 8.57492333,9.74526357 8.50404869,9.70982625 C8.18511279,9.46176499 7.86617689,9.17826642 7.61811564,8.89476784 L7.61811564,8.89476784 C7.58267831,8.8238932 7.51180367,8.78845588 7.47636635,8.75301855 C7.37005438,8.64670659 7.29917974,8.54039462 7.19286777,8.43408265 C7.15743045,8.39864533 7.12199313,8.39864533 7.0865558,8.36320801 C7.05111848,8.32777069 7.05111848,8.32777069 7.05111848,8.32777069 L7.05111848,8.32777069 C6.90936919,8.22145872 6.73218258,8.15058408 6.55499597,8.15058408 C6.34237204,8.15058408 6.16518543,8.22145872 6.05887346,8.39864533 C5.84624953,8.71758123 5.91712418,9.1428291 6.20062275,9.39089035 L6.20062275,9.39089035 C6.23606007,9.39089035 6.23606007,9.42632767 6.23606007,9.42632767 C6.23606007,9.42632767 6.30693472,9.49720232 6.34237204,9.49720232 C6.44868401,9.56807696 6.5904333,9.6389516 6.73218258,9.70982625 C6.80305723,9.74526357 6.87393187,9.78070089 6.94480652,9.81613822 L6.94480652,9.81613822 C7.29917974,10.0287621 7.65355296,10.2413861 7.93705153,10.5248847 C8.00792618,10.5957593 8.07880082,10.7375086 8.0433635,10.8438206 L8.0433635,10.8083832 L8.0433635,10.8083832 L8.25598743,11.0210072 C8.22055011,11.0918818 8.18511279,11.1273191 8.14967547,11.1981938 C7.05111848,12.9346226 6.5904333,14.9899872 6.90936919,17.0099146 L6.62587062,17.0807892 L6.62587062,17.0807892 C6.62587062,17.1162266 6.5904333,17.1162266 6.5904333,17.1162266 C6.55499597,17.2225385 6.44868401,17.2934132 6.34237204,17.3642878 C5.9525615,17.4705998 5.56275096,17.5414744 5.13750309,17.5769118 L5.13750309,17.5769118 C5.06662845,17.5769118 4.9957538,17.5769118 4.92487916,17.6123491 C4.78312987,17.6123491 4.64138058,17.6477864 4.49963129,17.6477864 C4.46419397,17.6477864 4.42875665,17.6832237 4.357882,17.6832237 C4.32244468,17.6832237 4.32244468,17.6832237 4.28700736,17.718661 L4.28700736,17.718661 C3.89719682,17.7895357 3.64913556,18.1439089 3.72001021,18.5337194 C3.72001021,18.5337194 3.72001021,18.5337194 3.72001021,18.5337194 C3.79088485,18.8526553 4.10982075,19.0652793 4.42875665,19.029842 C4.49963129,19.029842 4.53506861,19.029842 4.60594326,18.9944046 L4.60594326,18.9944046 C4.64138058,18.9944046 4.64138058,18.9944046 4.64138058,18.9589673 C4.64138058,18.92353 4.74769255,18.9589673 4.78312987,18.9589673 C4.92487916,18.92353 5.06662845,18.8526553 5.17294041,18.817218 C5.24381506,18.7817807 5.3146897,18.7463434 5.38556434,18.7463434 L5.42100167,18.7463434 C5.81081221,18.6045941 6.16518543,18.4982821 6.5904333,18.4274075 L6.62587062,18.4274075 C6.73218258,18.4274075 6.83849455,18.4628448 6.90936919,18.5337194 C6.94480652,18.5337194 6.94480652,18.5691568 6.94480652,18.5691568 L6.94480652,18.5691568 L7.26374241,18.5337194 C7.79530225,20.1638363 8.78754726,21.6167665 10.1696028,22.6798861 C10.4885387,22.9279474 10.7720373,23.1405713 11.1264105,23.3177579 L10.9492239,23.5658192 L10.9492239,23.5658192 C10.9492239,23.6012565 10.9846612,23.6012565 10.9846612,23.6012565 C11.0555359,23.7075685 11.0555359,23.8493178 11.0200986,23.9556297 C10.8783493,24.3100029 10.6657253,24.6643762 10.4531014,24.9833121 L10.4531014,25.0187494 C10.4176641,25.089624 10.3822268,25.1250614 10.3113521,25.195936 C10.2404775,25.2668106 10.1696028,25.4085599 10.0632909,25.5503092 C10.0278535,25.5857465 10.0278535,25.6211839 9.99241621,25.6566212 C9.99241621,25.6566212 9.99241621,25.6920585 9.95697889,25.6920585 L9.95697889,25.6920585 C9.77979228,26.0464317 9.92154157,26.4716796 10.2404775,26.6488662 C10.3113521,26.6843035 10.4176641,26.7197408 10.4885387,26.7197408 C10.7720373,26.7197408 11.0200986,26.5425542 11.1618478,26.294493 L11.1618478,26.294493 C11.1618478,26.294493 11.1618478,26.2590557 11.1972852,26.2590557 C11.1972852,26.2236183 11.2327225,26.188181 11.2681598,26.1527437 C11.3035971,26.0109944 11.3744718,25.9046824 11.4099091,25.7629332 L11.4807837,25.5503092 L11.4807837,25.5503092 C11.5870957,25.1604987 11.7642823,24.8061255 11.9414689,24.4517522 C12.0123436,24.3454403 12.1186555,24.2745656 12.2249675,24.2391283 C12.2604048,24.2391283 12.2604048,24.2391283 12.2604048,24.203691 L12.2604048,24.203691 L12.4021541,23.9201924 C13.3943991,24.3100029 14.4220815,24.4871896 15.4852011,24.4871896 C16.1230729,24.4871896 16.7609447,24.4163149 17.3988165,24.2391283 C17.7886271,24.1682537 18.1784376,24.0265044 18.5328108,23.9201924 L18.6745601,24.1682537 L18.6745601,24.1682537 C18.7099974,24.1682537 18.7099974,24.1682537 18.7099974,24.203691 C18.8163094,24.2391283 18.9226214,24.3100029 18.993496,24.4163149 C19.1706826,24.7706881 19.3478692,25.1250614 19.4541812,25.5148719 L19.4541812,25.5503092 L19.5250559,25.7629332 C19.5604932,25.9046824 19.5959305,26.0464317 19.6668051,26.1527437 C19.7022425,26.188181 19.7022425,26.2236183 19.7376798,26.2590557 C19.7376798,26.2590557 19.7376798,26.294493 19.7731171,26.294493 L19.7731171,26.294493 C19.9148664,26.5425542 20.1629277,26.7197408 20.4464262,26.7197408 C20.5527382,26.7197408 20.6236128,26.6843035 20.7299248,26.6488662 C20.8716741,26.5779916 21.0134234,26.4362423 21.0488607,26.2590557 C21.084298,26.081869 21.084298,25.9046824 21.0134234,25.7274958 L21.0134234,25.7274958 C21.0134234,25.6920585 20.9779861,25.6920585 20.9779861,25.6920585 C20.9779861,25.6566212 20.9425487,25.6211839 20.9071114,25.5857465 C20.8362368,25.4439973 20.7653621,25.3376853 20.6590502,25.2313733 C20.6236128,25.1604987 20.5881755,25.1250614 20.5173009,25.0541867 L20.5173009,24.9833121 C20.2692396,24.6643762 20.092053,24.3100029 19.9503037,23.9556297 C19.9148664,23.8493178 19.9148664,23.7075685 19.985741,23.6012565 C19.985741,23.5658192 20.0211784,23.5658192 20.0211784,23.5658192 L20.0211784,23.5658192 L19.9148664,23.2823206 C21.7221698,22.1837636 23.1042254,20.4827722 23.7420972,18.4628448 L24.0255958,18.4982821 L24.0255958,18.4982821 C24.0610331,18.4982821 24.0610331,18.4628448 24.0610331,18.4628448 C24.1319077,18.3919702 24.2382197,18.3565328 24.3445317,18.3565328 L24.379969,18.3565328 C24.7697795,18.4274075 25.1595901,18.5337194 25.5139633,18.6754687 L25.5494006,18.6754687 C25.6202753,18.7109061 25.6911499,18.7463434 25.7620245,18.7463434 C25.9037738,18.817218 26.0100858,18.8880927 26.1518351,18.92353 C26.1872724,18.92353 26.2227097,18.9589673 26.2935844,18.9589673 C26.3290217,18.9589673 26.3290217,18.9589673 26.364459,18.9944046 L26.364459,18.9944046 C26.4353337,19.029842 26.470771,19.029842 26.5416456,19.029842 C26.8605815,19.029842 27.1440801,18.817218 27.2503921,18.5337194 C27.2149547,18.1439089 26.9314562,17.8604103 26.6125203,17.7895357 L26.6125203,17.7895357 Z M16.3711342,16.6909787 L15.4143265,17.1516639 L14.4575188,16.6909787 L14.2094575,15.6632964 L14.8827667,14.8128006 L15.9458863,14.8128006 L16.6191954,15.6632964 L16.3711342,16.6909787 L16.3711342,16.6909787 Z M22.1474177,14.3875528 C22.3246043,15.1317365 22.3600416,15.8759203 22.289167,16.6201041 L18.9226214,15.6632964 L18.9226214,15.6632964 C18.6036855,15.5924217 18.4264989,15.2734858 18.4973735,14.9545499 C18.5328108,14.848238 18.5682482,14.7773633 18.6391228,14.7064887 L21.296922,12.2967508 C21.6867325,12.9346226 21.9702311,13.643369 22.1474177,14.3875528 L22.1474177,14.3875528 Z M20.2338023,10.9855698 L17.3279419,13.0409345 C17.0798806,13.1826838 16.7255074,13.1472465 16.5483208,12.8991852 C16.4774462,12.8283106 16.4420088,12.7574359 16.4420088,12.651124 L16.2293849,9.07195445 C17.7886271,9.24914106 19.1706826,9.92245018 20.2338023,10.9855698 L20.2338023,10.9855698 L20.2338023,10.9855698 Z M13.819647,9.17826642 L14.5283934,9.03651713 L14.3512068,12.5802493 L14.3512068,12.5802493 C14.3512068,12.8991852 14.0677083,13.1472465 13.7487724,13.1472465 C13.6424604,13.1472465 13.5715857,13.1118092 13.4652738,13.0763718 L10.523976,10.9855698 C11.4453464,10.0996368 12.5793407,9.46176499 13.819647,9.17826642 Z M9.49629371,12.2967508 L12.1186555,14.635614 L12.1186555,14.635614 C12.3667168,14.848238 12.4021541,15.2026112 12.1895302,15.4506724 C12.1186555,15.5569844 12.0477809,15.5924217 11.9060316,15.627859 L8.46861137,16.6201041 C8.3622994,15.1317365 8.71667262,13.6079317 9.49629371,12.2967508 L9.49629371,12.2967508 Z M8.89385923,18.2856582 L12.4021541,17.6832237 C12.6856527,17.6832237 12.9691513,17.8604103 13.0045886,18.1439089 C13.0400259,18.2502209 13.0400259,18.3919702 12.9691513,18.4982821 L12.9691513,18.4982821 L11.622533,21.7585158 C10.3822268,20.9434573 9.38998174,19.7031511 8.89385923,18.2856582 L8.89385923,18.2856582 Z M16.9381313,22.6798861 C16.4420088,22.7861981 15.9458863,22.8570727 15.4143265,22.8570727 C14.6701427,22.8570727 13.8905216,22.7153235 13.1817752,22.5026995 L14.918204,19.3487779 C15.0953906,19.1361539 15.3788892,19.0652793 15.6269504,19.2070286 C15.7332624,19.2779032 15.804137,19.3487779 15.910449,19.4550898 L15.910449,19.4550898 L17.6114405,22.5381368 C17.3988165,22.5735742 17.1861926,22.6090115 16.9381313,22.6798861 L16.9381313,22.6798861 Z M21.2614846,19.5968391 C20.7299248,20.4473348 19.985741,21.1915186 19.1352453,21.7230784 L17.7531897,18.3919702 C17.6823151,18.1084716 17.8240644,17.824973 18.0721256,17.718661 C18.1784376,17.6832237 18.2847496,17.6477864 18.3910615,17.6477864 L21.9347938,18.2502209 C21.7576071,18.7463434 21.5449832,19.2070286 21.2614846,19.5968391 Z" id="path10351" fill="#FFFFFF"></path>
        </g>
        <g id="weaveworks" transform="translate(6.000000, 74.000000)" fill-rule="nonzero">
            <path d="M11.2941235,22.166795 L31.5277793,4.21056323 C29.9211171,2.95610031 28.1185686,1.94105382 26.1656429,1.22280455 L11.2980808,14.4203876 L11.2980808,22.166795 L11.2941235,22.166795 Z M5.48085533,19.5807019 L0,24.4481763 C0.498619329,26.4624401 1.30986506,28.357985 2.3803137,30.0794089 L5.48085533,27.329088 L5.48085533,19.5787233 L5.48085533,19.5807019 Z" id="Shape" fill="#32324B"></path>
            <path d="M22.1173288,4.8180082 L22.1173288,0.203800758 C21.1873642,0.0712313328 20.2415704,0 19.2759901,0 C18.2668796,0 17.2735982,0.075188629 16.3040606,0.221608591 L16.3040606,9.97634388 L22.1173288,4.8180082 Z M22.1173288,31.95121 L22.1173288,12.5604583 L16.3040606,17.7286873 L16.3040606,39.2306565 C17.2735982,39.3750978 18.2629223,39.4522651 19.2759901,39.4522651 C20.4592217,39.4522651 21.6147522,39.3335462 22.7425816,39.1356814 L38.3105851,25.304931 C38.8388842,23.5241476 39.1277668,21.6444319 39.1277668,19.7053568 C39.1277668,18.7753921 39.0604928,17.8850005 38.9378166,16.9946088 L22.099521,31.9136157 L22.1173288,31.95121 Z" id="Shape" fill="#00D2FF"></path>
            <path d="M22.1173288,26.2566607 L37.7150121,12.416017 C36.9829122,10.5679597 35.9738017,8.85445039 34.7272534,7.33089133 L22.1232648,18.5142106 L22.1232648,26.2586394 L22.1173288,26.2566607 Z M16.3040606,23.6725463 L11.2980808,28.11659 L11.2980808,1.66206443 C9.12156789,2.61181553 7.16270624,3.93750978 5.48085533,5.54812936 L5.48085533,33.9021571 C6.79072039,35.162556 8.27074919,36.2448765 9.89324066,37.1075671 L16.3040606,31.4209323 L16.3040606,23.6725463 Z" id="Shape" fill="#FF4B19"></path>
        </g>
        <g id="rook" transform="translate(56.000000, 74.000000)" fill="#0091BD" fill-rule="nonzero">
            <path d="M32.8704758,12.4136884 L24.3114045,12.4136884 L24.3114045,9.56066469 L29.9871007,9.56066469 L29.9871007,2.88337507 L25.6468624,2.88337507 L25.6468624,6.67728963 L18.605357,6.67728963 L18.605357,2.88337507 L14.3258214,2.88337507 L14.3258214,6.67728963 L7.10220806,6.67728963 L7.10220806,2.88337507 L3.00478033,2.88337507 L3.00478033,9.56066469 L8.52871993,9.56066469 L8.52871993,12.4136884 L0.151756582,12.4136884 L0.151756582,0.0303513165 L9.95523181,0.0303513165 L9.95523181,3.82426588 L11.4727976,3.82426588 L11.4727976,0.0303513165 L21.4583808,0.0303513165 L21.4583808,3.82426588 L22.7938387,3.82426588 L22.7938387,0.0303513165 L32.8704758,0.0303513165 L32.8704758,12.4136884 Z M29.9263981,17.7858715 L29.9263981,33.5382047 C29.9263981,35.2075271 28.5605888,36.5733364 26.8912664,36.5733364 L6.13096593,36.5733364 C4.46164352,36.5733364 3.09583428,35.2075271 3.09583428,33.5382047 L3.09583428,17.7858715 L29.9263981,17.7858715 L29.9263981,17.7858715 Z M32.7794218,14.9024964 L0.212459215,14.9024964 L0.212459215,33.568556 C0.242810532,36.8161469 2.88337507,39.4263601 6.13096593,39.4263601 L26.8912664,39.4263601 C30.1388573,39.4263601 32.7794218,36.7857956 32.8097731,33.5078534 L32.8097731,14.8721451 L32.7794218,14.9024964 Z" id="Shape"></path>
            <path d="M16.5111162,23.5222703 C18.2107899,23.5222703 19.6069505,24.9184308 19.6069505,26.6181046 L19.6069505,29.8960467 L13.4152819,29.8960467 L13.4152819,26.6181046 C13.4152819,24.9184308 14.7810911,23.5526216 16.5111162,23.5222703 L16.5111162,23.5222703 Z M16.5111162,20.6692465 C13.233174,20.6692465 10.5622581,23.3401624 10.5622581,26.6181046 L10.5622581,32.7187192 L22.4599742,32.7187192 L22.4599742,26.6181046 C22.4599742,23.3401624 19.7890584,20.6692465 16.5111162,20.6692465 L16.5111162,20.6692465 Z" id="Shape"></path>
        </g>
    </g>
</svg>