<?xml version="1.0" encoding="UTF-8"?>
<svg width="40px" height="39px" viewBox="0 0 40 39" version="1.1" xmlns="http://www.w3.org/2000/svg" xmlns:xlink="http://www.w3.org/1999/xlink">
    <!-- Generator: Sketch 62 (91390) - https://sketch.com -->
    <title>Group</title>
    <desc>Created with Sketch.</desc>
    <g id="Page-1" stroke="none" stroke-width="1" fill="none" fill-rule="evenodd">
        <g id="Kurl-Vendor-Install-Page" transform="translate(-495.000000, -172.000000)" fill-rule="nonzero">
            <g id="Group-8" transform="translate(495.000000, 172.000000)">
                <g id="Group">
                    <path d="M36.4878379,8.59640845 C36.2592101,7.86479922 35.7105031,7.27036672 35.0246195,6.90456211 L21.0783185,0.228627884 C20.7125139,0.0457255769 20.3009837,-6.41780536e-14 19.9351791,-6.41780536e-14 C19.5693745,-6.41780536e-14 19.1578443,-6.41780536e-14 18.7920397,0.0914511537 L4.84573875,6.81311095 C4.159855,7.13318999 3.65687366,7.72762249 3.47397135,8.5049573 L0.0445531023,23.5486721 C-0.0926236283,24.3260069 0.0902786792,25.1033417 0.54753443,25.7434998 L10.1956312,37.6778753 C10.7443382,38.2265823 11.521673,38.5923869 12.2990078,38.6381125 L27.6628016,38.6381125 C28.485862,38.7295636 29.2631968,38.363759 29.7661781,37.6778753 L39.4142749,25.7434998 C39.8715306,25.1033417 40.0544329,24.3260069 39.9629818,23.5486721 L36.4878379,8.59640845 Z" id="path10349" fill="#326DE6"></path>
                    <path d="M34.3387358,22.9542396 L34.3387358,22.9542396 C34.2930103,22.9542396 34.2472847,22.9542396 34.2472847,22.908514 C34.2472847,22.8627884 34.1558335,22.8627884 34.0643824,22.8627884 C33.8814801,22.8170629 33.6985778,22.8170629 33.5156754,22.8170629 C33.4242243,22.8170629 33.3327731,22.8170629 33.241322,22.7713373 L33.1955964,22.7713373 C32.6926151,22.7256117 32.1439081,22.6341606 31.6409268,22.4969838 C31.5037501,22.4512582 31.3665733,22.3140815 31.3208478,22.1769048 C31.3665733,22.1769048 31.3208478,22.1769048 31.3208478,22.1769048 L31.3208478,22.1769048 L30.9550431,22.0854536 C31.1379454,20.7594119 31.0464943,19.3876446 30.7721408,18.0616029 C30.4520618,16.7355611 29.9033549,15.455245 29.1717456,14.3121056 L29.4460991,14.0377521 L29.4460991,14.0377521 L29.4460991,13.9920265 C29.4460991,13.8548498 29.4918247,13.6719475 29.5832758,13.5804963 C29.994806,13.2146917 30.4063362,12.9403383 30.863592,12.6659848 L30.863592,12.6659848 C30.9550431,12.6202592 31.0464943,12.5745336 31.1379454,12.5288081 C31.3208478,12.4373569 31.4580245,12.3459058 31.6409268,12.2544546 C31.6866524,12.208729 31.7323779,12.208729 31.7781035,12.1630034 C31.8238291,12.1172779 31.7781035,12.1172779 31.7781035,12.0715523 L31.7781035,12.0715523 C32.1896337,11.7514733 32.2810849,11.2027663 31.9610058,10.7912361 C31.8238291,10.6083338 31.5494756,10.4711571 31.3208478,10.4711571 C31.0922199,10.4711571 30.863592,10.5626083 30.6806897,10.699785 L30.6806897,10.699785 L30.6349641,10.7455106 C30.5892385,10.7912361 30.543513,10.8369617 30.4977874,10.8369617 C30.3606106,10.9741384 30.2234339,11.1113152 30.1319828,11.2484919 C30.0862572,11.3399431 29.994806,11.3856686 29.9490805,11.4313942 L29.9490805,11.4313942 C29.6290014,11.7971988 29.2174712,12.1630034 28.805941,12.4373569 C28.7144899,12.4830825 28.6230387,12.5288081 28.5315876,12.5288081 C28.485862,12.5288081 28.3944108,12.5288081 28.3486853,12.4830825 L28.3029597,12.4830825 L27.9371551,12.7117104 C27.5713505,12.3459058 27.1598203,11.9801011 26.7940156,11.6142965 C25.1021693,10.2882548 22.9987928,9.46519441 20.8496907,9.23656653 L20.8039651,8.87076191 L20.8039651,8.87076191 L20.8039651,8.91648749 C20.6667883,8.82503634 20.6210628,8.68785961 20.5753372,8.55068288 C20.5753372,8.04770153 20.5753372,7.54472018 20.6667883,6.99601326 L20.6667883,6.95028768 C20.6667883,6.85883653 20.7125139,6.76738538 20.7125139,6.67593422 C20.7582395,6.49303192 20.7582395,6.31012961 20.8039651,6.1272273 L20.8039651,5.85287384 L20.8039651,5.85287384 C20.8496907,5.39561807 20.483886,4.9383623 20.0266303,4.89263673 C19.7522768,4.84691115 19.4779233,4.98408788 19.2492955,5.21271576 C19.0663932,5.39561807 18.974942,5.62424596 18.974942,5.85287384 L18.974942,5.85287384 L18.974942,6.08150172 C18.974942,6.26440403 19.0206676,6.44730634 19.0663932,6.63020865 C19.1121187,6.7216598 19.1121187,6.81311095 19.1121187,6.90456211 L19.1121187,6.95028768 C19.2035699,7.45326903 19.2035699,7.95625038 19.2035699,8.5049573 C19.1578443,8.64213403 19.1121187,8.77931076 18.974942,8.87076191 L18.974942,8.96221307 L18.974942,8.96221307 L18.9292164,9.32801768 C18.4262351,9.37374326 17.9232537,9.46519441 17.3745468,9.55664557 C15.2254447,10.0139013 13.2592449,11.1570408 11.7503009,12.7574359 L11.4759474,12.5745336 L11.4302218,12.5745336 C11.3844962,12.5745336 11.3387707,12.6202592 11.2473195,12.6202592 C11.1558684,12.6202592 11.0644172,12.5745336 10.972966,12.5288081 C10.5614359,12.208729 10.1499057,11.8429244 9.82982663,11.4771198 L9.82982663,11.4771198 C9.78410105,11.3856686 9.6926499,11.3399431 9.64692432,11.2942175 C9.50974759,11.1570408 9.41829643,11.019864 9.2811197,10.8826873 C9.23539413,10.8369617 9.18966855,10.8369617 9.14394297,10.7912361 C9.0982174,10.7455106 9.0982174,10.7455106 9.0982174,10.7455106 L9.0982174,10.7455106 C8.91531509,10.6083338 8.6866872,10.5168827 8.45805932,10.5168827 C8.18370586,10.5168827 7.95507797,10.6083338 7.81790124,10.8369617 C7.54354778,11.2484919 7.63499894,11.7971988 8.00080355,12.1172779 L8.00080355,12.1172779 C8.04652913,12.1172779 8.04652913,12.1630034 8.04652913,12.1630034 C8.04652913,12.1630034 8.13798028,12.2544546 8.18370586,12.2544546 C8.32088259,12.3459058 8.5037849,12.4373569 8.6866872,12.5288081 C8.77813836,12.5745336 8.86958951,12.6202592 8.96104067,12.6659848 L8.96104067,12.6659848 C9.41829643,12.9403383 9.8755522,13.2146917 10.2413568,13.5804963 C10.332808,13.6719475 10.4242591,13.8548498 10.3785335,13.9920265 L10.3785335,13.9463009 L10.3785335,13.9463009 L10.652887,14.2206544 C10.6071614,14.3121056 10.5614359,14.3578311 10.5157103,14.4492823 C9.0982174,16.6898356 8.5037849,19.341919 8.91531509,21.9482769 L8.54951047,22.0397281 L8.54951047,22.0397281 C8.54951047,22.0854536 8.5037849,22.0854536 8.5037849,22.0854536 C8.45805932,22.2226304 8.32088259,22.3140815 8.18370586,22.4055327 C7.68072451,22.5427094 7.17774317,22.6341606 6.62903625,22.6798861 L6.62903625,22.6798861 C6.53758509,22.6798861 6.44613394,22.6798861 6.35468278,22.7256117 C6.17178048,22.7256117 5.98887817,22.7713373 5.80597586,22.7713373 C5.76025028,22.7713373 5.71452471,22.8170629 5.62307355,22.8170629 C5.57734798,22.8170629 5.57734798,22.8170629 5.5316224,22.8627884 L5.5316224,22.8627884 C5.02864105,22.9542396 4.70856202,23.4114954 4.80001317,23.9144767 C4.80001317,23.9144767 4.80001317,23.9144767 4.80001317,23.9144767 C4.89146432,24.3260069 5.30299452,24.6003604 5.71452471,24.5546348 C5.80597586,24.5546348 5.85170144,24.5546348 5.94315259,24.5089092 L5.94315259,24.5089092 C5.98887817,24.5089092 5.98887817,24.5089092 5.98887817,24.4631836 C5.98887817,24.4174581 6.1260549,24.4631836 6.17178048,24.4631836 C6.35468278,24.4174581 6.53758509,24.3260069 6.67476182,24.2802813 C6.76621298,24.2345557 6.85766413,24.1888302 6.94911528,24.1888302 L6.99484086,24.1888302 C7.49782221,24.0059279 7.95507797,23.8687511 8.5037849,23.7773 L8.54951047,23.7773 C8.6866872,23.7773 8.82386394,23.8230256 8.91531509,23.9144767 C8.96104067,23.9144767 8.96104067,23.9602023 8.96104067,23.9602023 L8.96104067,23.9602023 L9.37257086,23.9144767 C10.0584545,26.0178532 11.3387707,27.8926019 13.1220682,29.2643692 C13.5335984,29.5844482 13.899403,29.8588017 14.3566587,30.0874296 L14.1280309,30.4075086 L14.1280309,30.4075086 C14.1280309,30.4532342 14.1737564,30.4532342 14.1737564,30.4532342 C14.2652076,30.5904109 14.2652076,30.7733132 14.219482,30.91049 C14.0365797,31.3677457 13.7622262,31.8250015 13.4878728,32.2365317 L13.4878728,32.2822573 C13.4421472,32.3737084 13.3964216,32.419434 13.3049705,32.5108852 C13.2135193,32.6023363 13.1220682,32.7852386 12.9848914,32.9681409 C12.9391659,33.0138665 12.9391659,33.0595921 12.8934403,33.1053177 C12.8934403,33.1053177 12.8934403,33.1510432 12.8477147,33.1510432 L12.8477147,33.1510432 C12.6190868,33.608299 12.8019891,34.1570059 13.2135193,34.3856338 C13.3049705,34.4313594 13.4421472,34.477085 13.5335984,34.477085 C13.899403,34.477085 14.219482,34.2484571 14.4023843,33.928378 L14.4023843,33.928378 C14.4023843,33.928378 14.4023843,33.8826525 14.4481099,33.8826525 C14.4481099,33.8369269 14.4938355,33.7912013 14.539561,33.7454757 C14.5852866,33.5625734 14.6767378,33.4253967 14.7224634,33.2424944 L14.8139145,32.9681409 L14.8139145,32.9681409 C14.9510912,32.4651596 15.1797191,32.0079038 15.408347,31.550648 C15.4997982,31.4134713 15.6369749,31.3220202 15.7741516,31.2762946 C15.8198772,31.2762946 15.8198772,31.2762946 15.8198772,31.230569 L15.8198772,31.230569 L16.0027795,30.8647644 C17.2830957,31.3677457 18.6091374,31.5963736 19.9809047,31.5963736 C20.8039651,31.5963736 21.6270255,31.5049225 22.4500858,31.2762946 C22.9530672,31.1848434 23.4560485,31.0019411 23.9133043,30.8647644 L24.0962066,31.1848434 L24.0962066,31.1848434 C24.1419322,31.1848434 24.1419322,31.1848434 24.1419322,31.230569 C24.2791089,31.2762946 24.4162856,31.3677457 24.5077368,31.5049225 C24.7363647,31.9621782 24.9649926,32.419434 25.1021693,32.9224153 L25.1021693,32.9681409 L25.1936205,33.2424944 C25.239346,33.4253967 25.2850716,33.608299 25.3765228,33.7454757 C25.4222483,33.7912013 25.4222483,33.8369269 25.4679739,33.8826525 C25.4679739,33.8826525 25.4679739,33.928378 25.5136995,33.928378 L25.5136995,33.928378 C25.6966018,34.2484571 26.0166808,34.477085 26.3824855,34.477085 C26.5196622,34.477085 26.6111133,34.4313594 26.7482901,34.3856338 C26.9311924,34.2941827 27.1140947,34.1112803 27.1598203,33.8826525 C27.2055458,33.6540246 27.2055458,33.4253967 27.1140947,33.1967688 L27.1140947,33.1967688 C27.1140947,33.1510432 27.0683691,33.1510432 27.0683691,33.1510432 C27.0683691,33.1053177 27.0226435,33.0595921 26.976918,33.0138665 C26.8854668,32.8309642 26.7940156,32.6937875 26.6568389,32.5566107 C26.6111133,32.4651596 26.5653878,32.419434 26.4739366,32.3279828 L26.4739366,32.2365317 C26.1538576,31.8250015 25.9252297,31.3677457 25.7423274,30.91049 C25.6966018,30.7733132 25.6966018,30.5904109 25.788053,30.4532342 C25.788053,30.4075086 25.8337785,30.4075086 25.8337785,30.4075086 L25.8337785,30.4075086 L25.6966018,30.041704 C28.0286062,28.6242111 29.8119037,26.4293834 30.6349641,23.8230256 L31.0007687,23.8687511 L31.0007687,23.8687511 C31.0464943,23.8687511 31.0464943,23.8230256 31.0464943,23.8230256 C31.1379454,23.7315744 31.2751222,23.6858488 31.4122989,23.6858488 L31.4580245,23.6858488 C31.9610058,23.7773 32.4639872,23.9144767 32.9212429,24.097379 L32.9669685,24.097379 C33.0584197,24.1431046 33.1498708,24.1888302 33.241322,24.1888302 C33.4242243,24.2802813 33.561401,24.3717325 33.7443033,24.4174581 C33.7900289,24.4174581 33.8357545,24.4631836 33.9272056,24.4631836 C33.9729312,24.4631836 33.9729312,24.4631836 34.0186568,24.5089092 L34.0186568,24.5089092 C34.1101079,24.5546348 34.1558335,24.5546348 34.2472847,24.5546348 C34.6588149,24.5546348 35.0246195,24.2802813 35.1617962,23.9144767 C35.1160706,23.4114954 34.750266,23.0456907 34.3387358,22.9542396 L34.3387358,22.9542396 Z M21.1240441,21.5367467 L19.8894535,22.1311792 L18.654863,21.5367467 L18.3347839,20.210705 L19.2035699,19.1132911 L20.5753372,19.1132911 L21.4441232,20.210705 L21.1240441,21.5367467 L21.1240441,21.5367467 Z M28.5773131,18.5645842 C28.805941,19.5248213 28.8516666,20.4850584 28.7602155,21.4452956 L24.4162856,20.210705 L24.4162856,20.210705 C24.0047555,20.1192538 23.7761276,19.7077236 23.8675787,19.2961934 C23.9133043,19.1590167 23.9590299,19.0675656 24.050481,18.9761144 L27.4798993,15.8667752 C27.9828806,16.6898356 28.3486853,17.6043471 28.5773131,18.5645842 L28.5773131,18.5645842 Z M26.108132,14.1749288 L22.3586347,16.8270123 C22.0385557,17.0099146 21.5812999,16.964189 21.352672,16.64411 C21.2612208,16.5526588 21.2154953,16.4612077 21.2154953,16.3240309 L20.9411418,11.7057477 C22.9530672,11.9343756 24.7363647,12.8031615 26.108132,14.1749288 L26.108132,14.1749288 L26.108132,14.1749288 Z M17.8318026,11.8429244 L18.7463141,11.6600221 L18.5176862,16.2325798 L18.5176862,16.2325798 C18.5176862,16.64411 18.1518816,16.964189 17.7403514,16.964189 C17.6031747,16.964189 17.5117235,16.9184634 17.3745468,16.8727379 L13.5793239,14.1749288 C14.7681889,13.0317894 16.2314074,12.208729 17.8318026,11.8429244 Z M12.2532822,15.8667752 L15.6369749,18.8846632 L15.6369749,18.8846632 C15.9570539,19.1590167 16.0027795,19.6162725 15.728426,19.9363515 C15.6369749,20.0735282 15.5455237,20.1192538 15.3626214,20.1649794 L10.9272405,21.4452956 C10.7900637,19.5248213 11.2473195,17.5586215 12.2532822,15.8667752 L12.2532822,15.8667752 Z M11.4759474,23.5943977 L16.0027795,22.8170629 C16.3685841,22.8170629 16.7343887,23.0456907 16.7801143,23.4114954 C16.8258399,23.5486721 16.8258399,23.7315744 16.7343887,23.8687511 L16.7343887,23.8687511 L14.9968168,28.0755042 C13.3964216,27.0238159 12.1161055,25.4234207 11.4759474,23.5943977 L11.4759474,23.5943977 Z M21.8556533,29.2643692 C21.2154953,29.4015459 20.5753372,29.4929971 19.8894535,29.4929971 C18.9292164,29.4929971 17.9232537,29.3100948 17.0087422,29.0357413 L19.2492955,24.966165 C19.4779233,24.6918115 19.843728,24.6003604 20.163807,24.7832627 C20.3009837,24.8747138 20.3924349,24.966165 20.5296116,25.1033417 L20.5296116,25.1033417 L22.7244393,29.0814669 C22.4500858,29.1271925 22.1757324,29.172918 21.8556533,29.2643692 L21.8556533,29.2643692 Z M27.4341737,25.286244 C26.7482901,26.3836579 25.788053,27.343895 24.6906391,28.0297786 L22.9073416,23.7315744 C22.8158905,23.3657698 22.9987928,22.9999652 23.3188718,22.8627884 C23.4560485,22.8170629 23.5932253,22.7713373 23.730402,22.7713373 L28.3029597,23.5486721 C28.0743318,24.1888302 27.7999783,24.7832627 27.4341737,25.286244 Z" id="path10351" fill="#FFFFFF"></path>
                </g>
            </g>
        </g>
    </g>
</svg>