<?xml version="1.0" encoding="UTF-8"?>
<svg width="39px" height="39px" viewBox="0 0 39 39" version="1.1" xmlns="http://www.w3.org/2000/svg" xmlns:xlink="http://www.w3.org/1999/xlink">
    <!-- Generator: Sketch 62 (91390) - https://sketch.com -->
    <title>Prometheus_software_logo</title>
    <desc>Created with Sketch.</desc>
    <g id="Page-1" stroke="none" stroke-width="1" fill="none" fill-rule="evenodd">
        <g id="Kurl-Vendor-Install-Page" transform="translate(-498.000000, -649.000000)" fill="#E6522C" fill-rule="nonzero">
            <g id="Group-18" transform="translate(498.000000, 649.000000)">
                <g id="Prometheus_software_logo">
                    <path d="M19.3860789,0.228184211 C8.67989474,0.228184211 0,8.90705263 0,19.6135789 C0,30.3197632 8.67989474,38.9993158 19.3860789,38.9993158 C30.0922632,38.9993158 38.7718158,30.3197632 38.7718158,19.6135789 C38.7718158,8.90705263 30.0919211,0.228184211 19.3860789,0.228184211 Z M19.3860789,36.5101579 C16.3399737,36.5101579 13.8703158,34.4753158 13.8703158,31.9659737 L24.9018421,31.9659737 C24.9018421,34.4749737 22.4321842,36.5101579 19.3860789,36.5101579 Z M28.4963421,30.4610526 L10.2747895,30.4610526 L10.2747895,27.157 L28.4966842,27.157 L28.4966842,30.4610526 L28.4963421,30.4610526 Z M28.431,25.4563947 L10.3267895,25.4563947 C10.2665789,25.3869474 10.205,25.3185263 10.1468421,25.2480526 C8.28168421,22.9833158 7.84242105,21.801 7.41579877,20.5961053 C7.40863158,20.5564211 9.67747368,21.0596579 11.2863947,21.4216053 C11.2863947,21.4216053 12.1142895,21.6131842 13.3246579,21.8338421 C12.1625263,20.4715789 11.4725,18.7398421 11.4725,16.9697895 C11.4725,13.0838158 14.4529211,9.68807895 13.3776842,6.94336842 C14.4241842,7.02855263 15.5435526,9.152 15.6191579,12.4721316 C16.7316842,10.9347105 17.1972895,8.12705263 17.1972895,6.40557895 C17.1972895,4.62321053 18.3717368,2.55278947 19.5465263,2.48197368 C18.4993421,4.20789474 19.8178158,5.6875 20.9898684,9.35794737 C21.4294737,10.7366316 21.3733684,13.0567895 21.7127368,14.5281842 C21.8252895,11.4721579 22.3507632,7.01315789 24.2894737,5.47368421 C23.4342105,7.41239474 24.4160526,9.83826316 25.0876053,11.0045 C26.1710526,12.8860789 26.8278947,14.3116316 26.8278947,17.0077632 C26.8278947,18.8154474 26.1604474,20.5174211 25.0345789,21.8478684 C26.3147368,21.6077105 27.1987368,21.3911579 27.1987368,21.3911579 L31.3560001,20.5800263 C31.3563421,20.5796842 30.7521842,23.0640526 28.431,25.4563947 Z" id="path4486"></path>
                </g>
            </g>
        </g>
    </g>
</svg>